<?xml version="1.0" encoding="UTF-8"?><svg id="Layer_2" xmlns="http://www.w3.org/2000/svg" viewBox="0 0 343.38 291.92" fill="white"><g id="Layer_1-2"><g><path d="M224.6,41.3c-1.16,22-2.48,44-3.34,66.01-.19,4.82-1.78,7.5-5.97,9.85-20.84,11.68-41.51,23.67-62.23,35.58-2.04,1.17-3.95,1.24-6.05,.15-22.71-11.77-45.44-23.51-68.17-35.24-3.15-1.62-4.52-4.83-3.56-8.26,.16-.58,.08-1.24,.05-1.87-.28-5.08-.64-10.15-.83-15.23-.04-1.12,.74-2.26,.77-3.4,.1-3.74,.12-7.5,0-11.24-.18-5.86,.12-11.72,0-17.59-.13-6.67-.19-13.34-.27-20.01-.03-2.47,1.16-4.17,3.34-5.29C100.4,23.44,122.43,12.11,144.46,.76c2-1.03,3.85-.99,5.85,0,23.56,11.67,47.13,23.32,70.73,34.91,2.46,1.21,3.62,3.01,3.57,5.63Zm-69.25,97.55c.77-.36,1.33-.57,1.84-.86,17.18-9.82,34.35-19.66,51.56-29.43,1.38-.79,1.71-1.73,1.79-3.18,.79-15.14,1.66-30.28,2.44-45.42,.17-3.22,.02-6.45,.02-9.87-4.66,2.36-9.31,4.71-13.94,7.06-13.88,7.05-27.75,14.13-41.66,21.13-1.63,.82-2.27,1.74-2.26,3.64,.09,18.11,.08,36.22,.1,54.33,0,.77,.07,1.54,.12,2.6Zm-10.84,.56c0-19.83,.02-39.2-.07-58.56,0-.77-.91-1.84-1.67-2.26-6.18-3.37-12.43-6.63-18.67-9.9-.57-.3-1.22-.45-2.02-.74,0,6.14,.06,11.94-.02,17.73-.04,2.96-2.22,5.13-5,5.28-2.61,.14-4.95-1.77-5.46-4.54-.16-.87-.14-1.78-.15-2.67-.02-6.43-.11-12.87,0-19.3,.03-1.9-.64-2.82-2.29-3.66-6.91-3.52-13.74-7.2-20.61-10.81-.76-.4-1.55-.73-2.48-1.17-.08,.72-.18,1.16-.18,1.59,.02,19.01,.08,38.02,.04,57.03,0,1.7,.87,2.29,2.13,2.93,18,9.26,35.98,18.55,53.96,27.84,.69,.36,1.4,.68,2.48,1.21Zm62.69-98.37c-.37-.3-.54-.5-.77-.61-8.86-4.38-17.71-8.79-26.61-13.08-.75-.36-2.07-.17-2.86,.25-17.05,9.14-34.06,18.36-51.07,27.56-.66,.36-1.27,.79-2.11,1.32,8.48,4.47,16.66,8.83,24.91,13.03,.79,.4,2.22,.09,3.12-.36,12.11-6.07,24.18-12.22,36.26-18.36,6.35-3.23,12.69-6.47,19.13-9.76Zm-40.35-20.12c-6.11-3.03-11.71-5.75-17.23-8.6-1.59-.82-2.85-.76-4.43,.06-16.85,8.74-33.73,17.41-50.61,26.11-.7,.36-1.37,.78-2.39,1.35,6.64,3.5,12.99,6.87,19.38,10.16,.48,.25,1.36,.06,1.9-.22,5.35-2.84,10.67-5.74,16-8.63,12.3-6.66,24.6-13.32,37.39-20.24Z"/><path d="M0,197.46c0-12.31-.02-24.63,.02-36.94,0-2.4,1.09-4.2,3.33-5.35,22.02-11.3,44-22.68,66.08-33.86,1.56-.79,4.18-.8,5.77-.04,17.09,8.25,34.04,16.81,51.12,25.09,3.22,1.56,6.3,3.37,9.57,4.83,3.5,1.56,6.91,3.33,10.34,5.03,2.73,1.36,3.58,3.3,3.41,6.29-.69,12.82-1.24,25.66-1.9,38.48-.22,4.26-.7,8.51-.93,12.77-.31,5.6-.52,11.22-.73,16.83-.1,2.54-1.2,4.33-3.44,5.6-20.47,11.64-41.02,23.14-61.3,35.11-4.63,2.73-8.02,3.04-12.72,.31-8.93-5.2-18.3-9.64-27.49-14.38-12.62-6.5-25.24-12.99-37.87-19.47-2.27-1.16-2.97-3.07-2.97-5.49,.03-11.61,.02-23.21,.02-34.82H0Zm138.42-27.05c-1.02,.45-1.82,.76-2.59,1.15-17.87,9.08-35.72,18.2-53.63,27.21-1.77,.89-2.09,1.99-2.08,3.75,.07,18.02,.06,36.04,.08,54.05,0,.84,.07,1.68,.12,2.63,.5-.16,.77-.2,.98-.33,17.57-10.03,35.14-20.05,52.66-30.17,.77-.44,1.39-1.76,1.45-2.72,.74-11.84,1.38-23.68,2.02-35.52,.35-6.58,.65-13.16,.98-20.06Zm-127.38-1.31c-.09,.87-.17,1.31-.17,1.75,.02,19,.08,38.01,.03,57.01,0,1.9,1.08,2.38,2.37,3.05,17.9,9.23,35.79,18.48,53.69,27.72,.76,.39,1.55,.71,2.51,1.15,0-19.76,.02-39.21-.08-58.65,0-.75-1-1.77-1.79-2.2-6.19-3.36-12.44-6.61-18.67-9.87-.52-.27-1.11-.42-1.88-.71,0,5.94,0,11.64,0,17.33,0,2.73-1.2,4.62-3.85,5.43-3.59,1.1-6.71-1.46-6.77-5.7-.09-6.96,0-13.92-.11-20.88-.01-.9-.45-2.25-1.12-2.62-7.89-4.3-15.86-8.45-24.17-12.82Zm121.19-7.64c-.42-.31-.62-.5-.86-.61-8.87-4.38-17.72-8.79-26.65-13.05-.8-.38-2.22-.05-3.11,.43-16.73,8.97-33.43,18.01-50.13,27.05-.83,.45-1.64,.95-2.81,1.62,8.35,4.4,16.32,8.54,24.23,12.81,1.43,.77,2.49,.72,3.91,0,13.32-6.84,26.67-13.61,40.02-20.39,5.06-2.57,10.11-5.14,15.39-7.83Zm-115.08-1.17c6.68,3.52,12.9,6.82,19.16,10.03,.55,.28,1.53,.2,2.1-.1,16.79-9.03,33.55-18.11,50.32-27.19,.9-.49,1.78-1.01,3.04-1.72-6.04-2.99-11.64-5.69-17.17-8.53-1.58-.81-2.82-.79-4.4,.03-16.76,8.7-33.57,17.32-50.36,25.97-.77,.4-1.51,.85-2.67,1.51Z"/><path d="M210.59,287.17c1.36-6.01,2.61-11.57,3.86-17.13,2.6-11.56,5.18-23.12,7.82-34.67,.23-1.01,.73-2.02,1.34-2.86,19.61-27.64,39.17-55.32,58.91-82.87,5.82-8.12,12.09-15.91,18.21-23.8,2.29-2.95,4.91-3.27,7.9-1,10.73,8.14,21.44,16.31,32.13,24.52,3.25,2.5,3.44,4.98,.75,8.5-15.16,19.85-30.35,39.68-45.52,59.52-11.32,14.81-22.63,29.63-33.96,44.43-.53,.69-1.19,1.34-1.92,1.82-13.62,9-27.25,17.97-40.89,26.93-2.82,1.85-5.21,1.83-6.99-.21-.82-.94-1.19-2.27-1.65-3.18Zm46.17-34.89c18.91-24.7,37.61-49.13,56.43-73.72-8.5-6.48-16.83-12.83-25.29-19.29-18.02,25.36-35.84,50.44-53.78,75.69,7.55,5.78,14.99,11.47,22.64,17.32Zm74.65-97.57c-8.59-6.56-16.93-12.92-25.42-19.39-4.11,5.39-8.09,10.6-12.17,15.94,8.54,6.51,16.87,12.86,25.42,19.38,4.06-5.32,8-10.47,12.17-15.93Zm-101,89.97c-2.37,10.45-4.65,20.54-7.08,31.27,8.89-5.86,17.24-11.37,25.79-17.01-6.3-4.8-12.37-9.43-18.7-14.26Z"/><path d="M202.32,188.96c0,4.28,.06,8.18-.02,12.08-.05,2.38-.12,4.79-.52,7.13-.41,2.37-3.05,4.06-5.43,3.85-2.48-.22-4.56-2.07-4.77-4.64-.22-2.66-.14-5.35-.16-8.03-.03-4.73,.03-9.46-.1-14.19-.02-.9-.49-2.24-1.17-2.61-7.89-4.3-15.86-8.46-24.29-12.91,0,1.36,0,2.29,0,3.21,.02,14.52,.03,29.03,.05,43.55,0,3.82,.12,7.65-.04,11.47-.08,1.91,.64,2.81,2.29,3.65,11.76,5.98,23.5,12.02,35.16,18.2,1.53,.81,3.04,2.28,3.77,3.82,.92,1.94,.23,4.06-1.57,5.52-1.95,1.59-4.07,1.6-6.25,.48-6.89-3.56-13.78-7.13-20.68-10.68-6.58-3.38-13.16-6.77-19.76-10.11-2.49-1.26-3.63-3.08-3.62-5.95,.05-22.76,.02-45.52-.06-68.28,0-1.84-.66-3.67-.87-5.53-.05-.47,.3-1.24,.69-1.45,2.07-1.13,4.24-2.1,6.34-3.18,21.01-10.82,42.01-21.64,63-32.49,1.99-1.03,3.84-1.08,5.85-.09,13.57,6.75,27.16,13.46,40.74,20.19,.4,.2,.81,.38,1.2,.59,3.36,1.75,4.55,4.57,3.15,7.43-1.4,2.85-4.44,3.71-7.77,2.14-2.5-1.18-4.92-2.53-7.47-3.6-.82-.35-2.11-.38-2.87,.03-17.29,9.27-34.54,18.62-51.79,27.97-.46,.25-.89,.56-1.62,1.01,2.48,1.32,4.72,2.52,6.98,3.71,6.86,3.62,13.73,7.22,20.58,10.86,3.49,1.86,4.68,4.79,3.16,7.64-1.53,2.89-4.6,3.57-8.1,1.74-7.11-3.72-14.2-7.48-21.31-11.21-.85-.44-1.72-.84-2.72-1.32Zm-30.3-28.09c6.68,3.52,12.89,6.82,19.14,10.03,.58,.3,1.57,.33,2.13,.03,14.26-7.67,28.49-15.39,42.72-23.11,3.45-1.87,6.89-3.74,10.77-5.85-6.1-3.02-11.7-5.72-17.22-8.57-1.59-.82-2.85-.77-4.43,.05-16.36,8.49-32.76,16.91-49.15,25.35-1.18,.61-2.35,1.23-3.97,2.07Z"/></g></g></svg>