<?xml version="1.0" encoding="UTF-8"?><svg id="Layer_2" xmlns="http://www.w3.org/2000/svg" viewBox="0 0 372.85 341.71" fill="white"><g id="Layer_1-2"><g><path d="M76.55,30.67c.59-3.96,1.02-7.4,1.63-10.8,.86-4.81,2.81-9.18,5.48-13.27,4.74-7.26,15.12-7.57,20.22-.25,3.92,5.62,5.86,11.88,6.43,18.62,.14,1.63,.19,3.27,.27,4.81,4.24,1.01,95.34,.94,100.02-.05,.49-3.52,.9-7.13,1.52-10.71,.86-4.99,2.82-9.57,5.83-13.64,5.21-7.05,14.13-7.19,19.52-.25,4.2,5.41,6.16,11.72,6.73,18.49,.17,1.97,.23,3.96,.36,6.5,1.85,.08,3.6,.22,5.35,.22,15.65,0,31.31-.02,46.96-.04,1.33,0,2.67-.07,3.99,.06,4.13,.4,6.76,2.72,7.54,6.74,.32,1.62,.42,3.3,.43,4.96,.08,29.64,.14,59.27,.18,88.91,0,1.48-.08,3.01-.44,4.44-.99,3.99-3.99,6.24-7.96,6.2-3.97-.04-6.89-2.36-7.75-6.42-.38-1.77-.44-3.63-.47-5.45-.07-3.48-.02-6.95-.02-11.07-46.31-.31-92.2,.43-138.09,.4-45.78-.03-91.56,0-137.54,0v158.78c2.2,.07,4.14,.18,6.07,.18,52.29-.06,104.59-.14,156.88-.2,1.66,0,3.34-.07,4.99,.09,4.18,.39,7.19,3.38,7.53,7.34,.33,3.85-2.26,7.54-6.22,8.55-1.43,.36-2.97,.35-4.46,.35-56.96,.08-113.91,.16-170.87,.19-1.8,0-3.71-.12-5.38-.72-2.91-1.04-4.36-3.5-4.84-6.47-.21-1.3-.12-2.66-.12-3.99C.22,203.08,.11,123,0,42.92c0-1.33-.04-2.67,.06-3.99,.35-4.79,3.1-7.49,7.98-7.84,1.33-.09,2.66-.05,4-.06,19.82-.12,39.63-.24,59.45-.36,1.62,0,3.25,0,5.05,0Zm-.32,16.99H16.66v54.62H291.79c.96-7.07,.6-51.76-.35-55.28h-48.47c-1.31,2.43-2.26,4.57-3.53,6.51-7.69,11.76-18.96,11.37-25.78-.86-.96-1.72-1.77-3.52-2.65-5.28H109.18c-1.22,2.36-2.1,4.53-3.38,6.44-1.29,1.91-2.8,3.74-4.51,5.29-5.94,5.39-12.19,5.38-17.56-.49-2.86-3.12-4.86-7.02-7.51-10.96Z"/><path d="M212.26,335.17c.98-4.46,1.95-9.01,2.97-13.54,3.61-16.04,7.21-32.08,10.9-48.1,.32-1.39,1.09-2.77,1.92-3.95,23.46-33.12,46.88-66.27,70.5-99.27,7.06-9.87,14.68-19.35,22.12-28.94,3.15-4.06,6.23-4.55,10.29-1.5,12.88,9.72,25.72,19.5,38.5,29.36,4.24,3.27,4.45,6.02,.91,10.67-13.49,17.75-27.04,35.45-40.57,53.16-18.18,23.8-36.35,47.59-54.57,71.36-1.09,1.42-2.42,2.77-3.91,3.76-15.39,10.2-30.82,20.33-46.25,30.46-1.39,.91-2.75,1.92-4.26,2.57-4.17,1.8-8.71-1.42-8.56-6.04Zm93.4-153.52c-21.67,30.5-43.11,60.68-64.79,91.19,9.11,6.96,17.92,13.69,27.12,20.71,22.75-29.72,45.28-59.15,67.98-88.8-10.1-7.69-19.98-15.23-30.31-23.1Zm21.86-28.93c-4.9,6.39-9.61,12.54-14.54,18.98,10.25,7.82,20.26,15.45,30.47,23.24,4.93-6.47,9.64-12.64,14.5-19.01-10.21-7.79-20.1-15.32-30.43-23.21Zm-99.33,167.82c.3,.22,.61,.45,.91,.67,9.64-6.35,19.27-12.71,29.39-19.38-7.55-5.76-14.61-11.14-22.2-16.93-2.78,12.23-5.45,23.94-8.11,35.65Z"/><path d="M158.78,187.46c-4.32,0-8.65,.1-12.96-.03-5.57-.16-8.58-3.15-8.65-8.74-.11-8.81-.11-17.62,0-26.42,.06-4.89,2.64-7.65,7.43-8.4,.66-.1,1.32-.22,1.98-.22,8.31-.04,16.63-.23,24.93-.03,6.46,.15,9.41,3.24,9.53,9.66,.15,8.31,.18,16.62,.03,24.93-.11,6.15-3.21,9.06-9.32,9.22-2.16,.06-4.32,.02-6.48,.02-2.16,0-4.32,0-6.48,0h0Z"/><path d="M72.29,187.4c-4.49,0-8.97,.08-13.46-.02-5.65-.13-8.61-3-8.7-8.64-.14-8.64-.13-17.28-.05-25.91,.06-5.93,2.8-8.89,8.75-9.23,4.8-.27,9.63-.11,14.45-.13,3.82-.01,7.65-.14,11.46,.03,5.65,.25,8.8,2.99,9,8.58,.32,8.96,.36,17.94,.09,26.9-.17,5.56-3.45,8.27-9.08,8.37-4.15,.08-8.31,.02-12.46,.02v.04Z"/><path d="M158.78,209.96c4.32,0,8.64-.07,12.96,.02,5.54,.11,8.76,2.59,8.97,7.9,.36,9.28,.37,18.6,.04,27.88-.18,4.97-2.99,7.65-8.02,7.84-9.12,.35-18.27,.4-27.4,.14-5.3-.15-8.14-3.42-8.21-8.72-.12-8.8-.15-17.61-.04-26.41,.07-5.6,3.04-8.45,8.74-8.59,4.32-.11,8.64-.02,12.96-.02v-.04Z"/><path d="M93.55,234.18c0,4.15,.07,8.3-.02,12.45-.13,5.92-2.85,8.89-8.8,9.19-5.3,.26-10.63,.11-15.94,.13-3.32,.01-6.65,.14-9.97-.03-5.87-.3-8.76-3.25-8.9-9.13-.19-8.13-.34-16.27-.2-24.4,.04-2.38,.75-4.93,1.86-7.04,1.2-2.28,3.63-3.28,6.33-3.28,9.14,0,18.27-.12,27.41,.01,5.02,.07,7.94,3.08,8.13,8.17,.17,4.64,.04,9.3,.04,13.95h.07Z"/><path d="M243.01,145.89c4.33,0,8.66-.11,12.99,.03,5.41,.17,8.37,2.99,8.47,8.36,.18,8.82,.23,17.64,.07,26.46-.11,5.98-3.03,8.68-9.12,8.75-8.49,.11-16.98,.13-25.47,.04-6.03-.07-8.9-2.9-8.99-8.87-.12-8.65-.14-17.31-.04-25.96,.06-5.7,2.93-8.57,8.61-8.74,4.49-.14,8.99-.03,13.48-.03v-.03Z"/></g></g></svg>