<?xml version="1.0" encoding="UTF-8"?><svg id="Layer_2" xmlns="http://www.w3.org/2000/svg" viewBox="0 0 368.27 331.89" fill="white"><g id="Layer_1-2"><g><path d="M87.58,145.02c1.57,.61,3.01,1.05,4.33,1.7,27.89,13.73,55.76,27.5,83.65,41.22,4.9,2.41,5.7,4.06,5.22,9.86-.51,6.3-.75,12.62-1.06,18.93-.79,15.95-1.55,31.9-2.35,47.85-.25,4.98-.6,9.96-.84,14.94-.15,3.01-1.88,4.77-4.35,6.17-23.99,13.64-47.97,27.32-71.94,40.99-1.73,.99-3.55,1.88-5.14,3.05-2.89,2.13-5.57,2.02-8.74,.37-26.67-13.92-53.37-27.79-80.16-41.48-4.26-2.18-5.99-4.83-5.95-9.7,.19-26.12,.06-52.25,.02-78.38,0-1.83,.04-3.67-.18-5.48-.45-3.78,1.03-6.35,4.4-8.07,26.19-13.4,52.35-26.85,78.54-40.26,1.45-.74,3.06-1.17,4.56-1.73Zm79.61,60.92c-23.56,11.99-46.64,23.73-69.66,35.44v71.68c22.36-12.78,44.09-25.21,65.96-37.71,1.23-23.11,2.45-45.97,3.7-69.41Zm-83.75,107.61v-72.23c-8.78-4.39-16.99-9.21-26.18-13.53,0,6.46,.06,12.1-.03,17.74-.03,1.97-.18,4.02-.74,5.89-.77,2.57-3.66,4.28-6.22,4.14-2.65-.14-5.22-2.03-5.83-4.68-.44-1.92-.53-3.96-.55-5.94-.07-6.66-.03-13.32-.08-19.97-.01-1.61-.23-3.23-.34-4.69-10.07-5.28-19.73-10.34-29.69-15.56v72.87c23.24,12,46.25,23.87,69.67,35.96Zm41.76-135.66c-21.96,11.89-43.65,23.64-66.05,35.77,9.68,5.11,18.56,9.62,27.25,14.48,3.01,1.68,5.34,1.51,8.32-.02,20.1-10.38,40.29-20.57,60.45-30.83,1.26-.64,2.49-1.36,4.37-2.4-11.75-5.81-22.89-11.33-34.35-16.99Zm-14.56-7.08c-6.58-3.28-12.17-5.79-17.48-8.8-3.85-2.18-7.01-2.22-11.05-.08-18.91,10.05-38.02,19.73-57.05,29.56-1.09,.56-2.14,1.21-3.83,2.17,8.39,4.43,16.11,8.52,23.84,12.6,21.64-11.7,43.08-23.29,65.58-35.45Z"/><path d="M90.47,91.84c0-14.14,.03-28.28-.02-42.43-.01-3.7,1.4-6.15,4.81-7.89C121.47,28.14,147.62,14.67,173.75,1.14c3.12-1.62,5.8-1.46,8.92,.1,27.67,13.79,55.36,27.54,83.16,41.07,4.23,2.06,5.98,4.58,5.68,9.24-1.06,16.76-1.91,33.54-2.78,50.31-.52,9.97-1.06,19.94-1.29,29.91-.1,4.12-1.62,6.73-5.24,8.78-25.73,14.62-51.39,29.37-77.03,44.13-2.75,1.58-5.25,1.49-7.99,.06-25.21-13.13-50.44-26.22-75.67-39.31-1.92-.99-3.83-2.01-5.8-2.88-3.64-1.6-5.13-4.32-5.1-8.28,.1-14.14,.04-28.29,.04-42.43h-.17Zm97.29,75.95c22.44-12.83,44.45-25.41,66.37-37.94,1.21-23.12,2.39-45.81,3.62-69.35-23.92,12.16-46.97,23.88-69.99,35.58v71.71Zm-53.28-92.8c-10.31-5.24-20.03-10.82-30.13-15.63v72.72c23.4,12.08,46.4,23.95,69.87,36.07V95.96c-8.75-4.6-17.4-9.15-26.57-13.98,0,1.92,0,3.22,0,4.52,0,5.66,.1,11.33-.06,16.98-.11,3.91-2.65,6.36-6.18,6.47-3.47,.1-6.26-2.27-6.8-5.99-.22-1.47-.12-2.99-.12-4.49,0-7.98,0-15.97,0-24.48Zm81.33-42.55c-21.85,11.81-43.58,23.56-66.06,35.72,10.97,5.78,21.18,11.16,31.37,16.54,23.03-11.73,45.82-23.34,69.21-35.25-11.99-5.9-23.15-11.4-34.52-17.01Zm-14.5-7.14c-8.15-4.02-15.71-7.76-23.21-11.46-22.12,11.4-43.93,22.64-66.48,34.25,8.66,4.55,16.43,8.63,24.1,12.66,21.75-11.76,43.25-23.38,65.59-35.46Z"/><path d="M186.53,190.68c12.93-6.65,25.92-13.32,38.9-20.01,14.93-7.7,29.88-15.36,44.75-23.17,3.09-1.62,5.67-1.65,8.86-.06,27.83,13.86,55.75,27.57,83.65,41.29,4.77,2.35,5.83,4.15,5.54,9.37-1.01,17.94-1.99,35.88-2.95,53.83-.47,8.81-.97,17.61-1.32,26.43-.16,4.04-1.83,6.6-5.48,8.66-25.35,14.3-50.61,28.77-75.81,43.35-3.43,1.99-6.26,2.01-9.72,.2-26.53-13.86-53.08-27.68-79.76-41.27-4.35-2.22-5.94-4.96-5.92-9.74,.15-27.3,.07-54.6,.01-81.9,0-2.1-.44-4.19-.75-6.98Zm14.2,14.67v72.89c23.4,12.09,46.69,24.12,70.13,36.22v-72.21c-8.77-4.6-17.27-9.06-26.48-13.89,0,2.31,0,3.92,0,5.53,0,4.83,.16,9.66-.07,14.47-.09,1.89-.66,4-1.7,5.53-1.51,2.21-3.99,2.85-6.67,2.06-2.87-.84-4.59-2.94-4.65-6.32-.13-7.32-.07-14.64-.08-21.97,0-2.13,0-4.26,0-6.3-10.27-5.4-20.09-10.56-30.47-16.02Zm149.96,70.78c1.22-22.95,2.43-45.83,3.68-69.39-23.71,12.06-46.78,23.8-69.76,35.49v71.69c22.26-12.73,44.02-25.17,66.09-37.78Zm-73.04-45.18c7.83-3.96,15.52-7.84,23.2-11.74,7.55-3.83,15.1-7.67,22.62-11.55,7.53-3.88,15.23-7.47,23.22-12.05-12.03-5.92-23.18-11.4-34.35-16.89-21.94,11.87-43.68,23.63-66.02,35.72,10.71,5.64,20.94,11.04,31.32,16.51Zm-69.46-36.59c8.52,4.48,16.28,8.56,24.1,12.67,21.82-11.81,43.39-23.48,65.59-35.48-8.29-4.08-15.72-7.75-23.2-11.43-22.05,11.35-43.92,22.61-66.49,34.24Z"/></g></g></svg>