<?xml version="1.0" encoding="UTF-8"?><svg id="Layer_2" xmlns="http://www.w3.org/2000/svg" viewBox="0 0 1455.68 472.4"><defs><style>.cls-1{fill:#ac1f2d;}.cls-2{fill:#b21e35;}.cls-3{fill:#231f20;}.cls-4{fill:#898787;}.cls-5{fill:#626264;}.cls-6{fill:#5b5b5d;}.cls-7{fill:#59595b;}.cls-8{fill:#5c5c5e;}.cls-9{fill:#5a5a5c;}.cls-10{fill:#58585a;}.cls-11{fill:#78787b;}</style></defs><g id="Layer_1-2"><g><path class="cls-1" d="M139.77,183.37c-1.36,.2-2.81,.34-4.23,.62-8.06,1.61-16.39,1.67-24.35,4.09-.55,1.04,.07,2.02,.09,3,.03,1.01,.22,2.02,.34,3.03,2.34,18.91,1.88,37.64-3.72,56.02-4.09,13.41-10.42,25.7-18.52,37.1-5.95,8.37-13.49,14.84-22.98,18.92-1.66,.71-3.26,1.54-4.9,2.31-6.29,2.94-11.35,7.32-15.26,13.05-.51,.75-1.01,1.5-1.59,2.19-.17,.21-.58,.23-.89,.33-.41-1.09-.04-2.06,.2-3.03,1.73-7.25,3.97-14.35,6.03-21.51,4.41-15.29,8.63-30.62,12.1-46.16,2.73-12.24,4.99-24.56,6.33-37.02,.49-4.6,.95-9.22,.9-13.86,0-.76,.21-1.57-.29-2.3-1.22-.34-2.17,.45-3.19,.83-4.23,1.56-8.41,3.27-12.66,4.8-4.03,1.46-8.16,2.61-12.4,3.35-2.92,.51-5.84,.66-8.77,.41-6.36-.54-10.75-3.75-12.85-9.86-.51-1.49-.89-3.04-1.17-4.59-1.19-6.41-4.16-11.9-8.59-16.61-1.93-2.05-4.08-3.9-6.1-5.88-.96-.95-1.94-1.9-2.73-2.99-.99-1.37-.69-2.8,.63-3.89,1.06-.88,2.34-1.35,3.61-1.8,4.36-1.57,8.86-2.67,13.35-3.74,14.05-3.34,28.22-6.13,42.39-8.9,.22-.04,.45-.05,.67-.1,3.35-.63,2.74-.7,2.92-3.45,.3-4.62,.48-9.25,1.73-13.75,.55-1.97,1.21-3.88,2.25-5.64,2.24-3.75,5.31-5.18,9.46-4.02,9.52,2.68,18.48,6.61,26.38,12.69,1.51,1.17,2.92,2.5,4.25,3.88,.83,.86,1.67,1.02,2.74,.75,3.5-.88,7-1.75,10.51-2.59,5.71-1.36,11.41-2.74,17.14-4,1.85-.4,1.99-.91,1.7-2.57-.6-3.46-.64-6.97-.9-10.46-.34-4.64,.04-9.25,.98-13.81,.65-3.17,1.96-5.97,4.34-8.26,1.72-1.65,2.98-3.68,4.24-5.69,1.19-1.92,2.32-3.88,3.56-5.76,.93-1.41,1.89-2.82,3.01-4.08,3.41-3.81,6.98-4.37,11.53-1.94,2.01,1.07,3.76,2.5,5.42,4.03,5.93,5.44,10.22,12.01,13.26,19.42,1.85,4.51,3.1,9.19,3.91,13.99,.19,1.13,.14,2.25,.02,3.37-.07,.64,.45,.8,.87,.73,2.56-.43,5.11-.9,7.66-1.39,12.96-2.52,25.99-4.64,39.07-6.45,9.61-1.33,19.26-2.41,28.95-3.09,7.34-.52,14.67-.67,22-.43,4.63,.15,9.23,.72,13.71,1.97,1.86,.52,3.61,1.26,5.3,2.21,1.17,.66,1.47,1.62,1.27,2.85-.22,1.36-.8,2.59-1.45,3.78-1.3,2.39-2.93,4.56-4.77,6.56-2.85,3.1-6.06,5.77-9.75,7.79-1.89,1.04-3.18,2.46-3.85,4.5-1.4,4.23-4.42,6.97-8.24,9.01-3.91,2.08-8.09,3.45-12.33,4.62-7.85,2.16-15.85,3.56-23.9,4.66-8.06,1.1-16.03,2.65-23.93,4.56-8,1.93-15.96,4.05-23.95,6.05-2.84,.71-5.73,1.27-8.58,1.94-2.34,.55-2.34,.57-2.46,2.84-.01,.23-.02,.45-.03,.68-.31,11.18-.63,22.36-.94,33.54-.79,28.69-.18,57.39-.28,86.08-.08,23.27-.1,46.55-.4,69.82-.2,15.13-.76,30.26-1.36,45.39-.32,8.12-1.01,16.23-1.9,24.31-.73,6.6-3.19,12.41-7.15,17.65-1.23,1.62-2.51,3.2-3.8,4.77-2.71,3.3-4.43,7.05-5.27,11.23-.22,1.07-.11,2.73-1.18,2.9-1.53,.24-1.67-1.59-2.07-2.65-1.87-4.86-3.04-9.92-4.15-14.99-2.81-12.79-5-25.69-6.95-38.64-1.72-11.39-3.18-22.81-4.44-34.25-.93-8.53-1.57-17.09-2.32-25.64-1.74-19.83-2.06-39.7-2.04-59.59,.02-16.38-.12-32.76-.21-49.14-.08-14.01-.17-28.02-.28-42.02-.02-2.03-.13-4.06-.23-6.09-.24-4.51-.39-9.03-.13-13.55,.04-.77,.2-1.58-.41-2.44Z"/><path class="cls-2" d="M924.89,361.89c-175.27,0-350.54,0-525.81,0-1.02,0-2.03,.02-3.05,0-1.63-.05-1.87-.32-1.88-2.06,0-.34,0-.68,.03-1.02,.06-.77,.42-1.26,1.24-1.3,.45-.02,.9-.02,1.35-.02,.9,0,1.81,0,2.71,0,350.31,0,700.63,0,1050.94,0,1.24,0,2.49-.02,3.73,.02,1.22,.05,1.49,.37,1.53,1.7,.01,.56,.01,1.13-.06,1.69-.06,.47-.37,.81-.86,.9-.33,.06-.67,.08-1.01,.08-1.13,.01-2.26,0-3.39,0-175.16,0-350.31,0-525.47,0Z"/><path class="cls-11" d="M233.42,189.85c1.86-.13,3.94,.53,6.06,.81,3.24,.42,6.49,.86,9.61,1.89,1.28,.42,2.58,.84,3.78,1.45,4.27,2.15,6.16,5.7,5.81,10.52-.3,4.12-1.49,7.97-3.31,11.65-.7,1.41-1.48,2.79-2.31,4.14-2.88,4.67-3.45,9.69-2.43,15,.94,4.89,2.37,9.64,4.15,14.28,2.47,6.42,5.05,12.8,7.5,19.23,1.16,3.05,2.23,6.15,3.17,9.28,3.65,12.19,.85,22.95-7.4,32.42-4.24,4.87-9.07,9.11-14.21,13.02-7.66,5.83-15.73,10.98-24.47,15.03-3.08,1.42-6.22,2.66-9.51,3.49-1.89,.48-3.78,.62-5.71,.51-.79-.05-1.56-.16-2.25-.63-.75-.51-.96-1.31-.44-2.02,.89-1.2,2.08-2.06,3.24-2.96,2.13-1.67,4.32-3.28,6.42-4.98,9.96-8.04,17.28-18.02,22.07-29.9,2.93-7.27,3.39-14.63,1.72-22.23-2.32-10.57-7.11-19.97-13.73-28.41-3.27-4.17-4.91-8.78-5.6-13.91-1.2-8.99-.15-17.78,2.12-26.48,.77-2.95,1.77-5.82,3.72-8.27,.92-1.16,1.29-2.61,1.71-4.03,.38-1.3,.78-2.59,1.28-3.85,1.31-3.29,3.81-4.92,7.32-5.02,.45-.01,.9,0,1.66,0Z"/><path class="cls-3" d="M1180.41,99.55c0,2.94,0,5.87,0,8.81,0,.82-.48,1.21-1.27,1.26-.23,.01-.45,.02-.68,.02-1.58-.05-3.3,.29-4.68-.26-1.33-.53-1.4-2.44-2.07-3.72-4.17-8.08-10.83-12.84-19.63-14.65-4.9-1.01-9.88-1.46-14.76-.05-8.63,2.48-14.83,7.8-17.06,16.66-2.56,10.16,.75,19.87,9.63,25.35,3.19,1.97,6.57,3.5,10.09,4.72,4.69,1.62,9.41,3.13,14.11,4.71,3.74,1.26,7.39,2.74,10.89,4.6,9.55,5.07,15.12,12.88,16.57,23.66,.72,5.32,.74,10.58-.51,15.81-1.96,8.12-6.44,14.59-13.07,19.59-5.88,4.43-12.55,7.02-19.78,8.27-8.86,1.52-17.54,.47-26.14-1.73-4.6-1.18-9.07-2.69-13.31-4.88-1.34-.69-1.94-1.56-2.05-3.12-.38-5.4-.95-10.79-1.43-16.19-.1-1.15,.14-1.43,1.23-1.46,1.24-.04,2.48,.02,3.72-.03,1.09-.04,1.64,.48,1.94,1.47,1.29,4.21,3.69,7.72,6.89,10.68,5.61,5.18,12.28,7.98,19.89,8.22,5.16,.16,10.06-1.07,14.54-3.78,8.78-5.29,12.2-15.46,10.08-24.61-.81-3.51-2.77-6.39-5.49-8.74-2.33-2.01-4.97-3.5-7.75-4.78-4-1.85-8.19-3.2-12.36-4.59-4.38-1.47-8.78-2.88-13.04-4.69-3.23-1.37-6.34-2.94-9.25-4.91-8.07-5.45-12.49-13.06-13.71-22.7-.84-6.62-.4-13.1,1.8-19.37,4.07-11.6,12.24-19.23,23.57-23.65,5.1-1.99,10.43-2.96,15.87-3.05,8.26-.14,16.47,.44,24.52,2.44,3.51,.87,6.89,2.12,10.23,3.48,1.78,.73,2.7,1.68,2.52,3.77-.21,2.47-.05,4.96-.05,7.45h-.02Z"/><path class="cls-3" d="M1455.62,142.44c0-.63-.37-1.06-1.03-1.1-.79-.05-1.58-.05-2.37-.05-4.85-.01-9.71-.02-14.56,0-1.37,.01-2.63-.17-3.9-.84-8.84-4.7-18.36-6.05-28.22-5.33-4.63,.34-9.05,1.67-13.26,3.75-15.25,7.56-19.54,27.8-9.59,40.84,2.71,3.54,5.9,6.52,9.63,8.95,.81,.53,1.8,.85,2.37,1.72-.43,.95-1.37,1.18-2.1,1.67-2.45,1.61-4.95,3.15-7.36,4.82-2.15,1.47-4.08,3.22-5.74,5.24-2.85,3.46-4.21,7.43-3.89,11.92,.21,3.04,1.26,4.18,4.27,4.76,1.79,.34,3.6,.21,5.41,.13,.8,0,2.02-1.12,2.1,.8-1.82,.92-3.49,2.07-4.96,3.5-2.73,2.66-4.14,5.82-3.91,9.71,.27,4.59,2.27,8.2,5.91,10.93,2.94,2.2,6.32,3.45,9.84,4.33,5.87,1.47,11.83,1.66,17.83,1.43,6.14-.22,12.09-1.43,17.87-3.47,4.83-1.7,9.33-4.03,13.11-7.55,6.15-5.71,8.67-12.74,7.46-21.09-.67-4.62-3.17-7.87-7.32-9.9-2.24-1.09-4.64-1.71-7.09-2.16-4.02-.74-8.08-.88-12.15-.83-8.24,.08-16.48,.28-24.72,.39-1.23,.02-2.49-.02-3.7-.23-1.35-.24-2.06-1.3-2.12-2.68-.05-1.33,.51-2.4,1.31-3.39,1.17-1.43,2.67-2.43,4.31-3.22,3.19-1.54,6.58-2.29,10.13-2.41,3.04-.11,6.09-.22,9.12-.51,5.21-.48,10.24-1.7,14.9-4.15,6.11-3.2,10.25-8.08,12.1-14.74,1.83-6.58,1.87-13.15-.57-19.63-.36-.94-.77-1.88-1.08-2.84-.15-.45-.02-.93,.57-.98,.9-.06,1.8-.07,2.7-.08,2.49,0,4.97,0,7.45-.03,.78-.01,1.26-.42,1.26-1.24,.01-2.15,.02-4.29-.01-6.44Zm-58.41,78.35c3.49-1.46,7.12-2.1,10.83-2.35,2.46-.17,4.95-.03,7.43-.03,3.94-.15,7.88-.15,11.78,.59,1.66,.32,3.3,.72,4.86,1.38,4.82,2.04,6.16,5.68,5.14,10.42-.49,2.25-1.7,4.15-3.37,5.75-1.57,1.49-3.35,2.68-5.34,3.5-8.69,3.6-17.59,4.53-26.74,2.02-2.3-.62-4.43-1.62-6.39-2.99-6.79-4.7-5.46-15.27,1.8-18.29Zm30.21-46.56c-.32,1.07-.7,2.13-1.15,3.16-3.29,7.52-10.61,10.94-19.38,8.56-3.92-1.07-6.61-3.72-8.55-7.19-1.44-2.6-2.29-5.41-2.66-8.32-.67-5.16-.69-10.34,.5-15.46,.46-1.98,1.14-3.88,2.09-5.68,3.64-6.89,10.15-8.69,15.81-7.98,5.58,.7,9.56,3.7,11.98,8.76,2.09,4.36,2.74,9.02,2.68,14.11,.09,3.21-.29,6.67-1.32,10.04Z"/><path class="cls-3" d="M513.56,82.88c.44,.62,.29,1.31,.29,1.96,.01,7,0,14.01,0,21.01,0,.23,0,.45,0,.68-.05,1.68-.15,1.8-1.68,1.84-.9,.03-1.81,.02-2.71,0-1.97-.03-2.42,.45-3.13-2.45-1.9-7.68-6.26-11.16-14.18-11.62-1.13-.07-2.26-.08-3.39-.08-6.55,0-13.1,0-19.65,0-3.39,0-3.22-.13-3.22,3.04,0,1.81-.01,3.62-.06,5.42-.81,29.36-.85,58.73-.77,88.1,0,2.49,.09,4.95,.6,7.41,.86,4.17,3.13,7.18,6.97,9,.31,.14,.62,.27,.93,.4q3.16,1.39,2.88,4.89c-.69,.58-1.51,.37-2.28,.34-2.37-.08-4.74-.22-7.1-.35-8.24-.43-16.48-.48-24.71,.13-2.57,.19-5.15,.25-7.69,.23-.13-.61-.24-.93-.25-1.26-.09-2.66-.11-2.73,2.31-3.71,4.83-1.96,7.58-5.44,8.26-10.64,.25-1.91,.41-3.82,.41-5.74-.02-14.23,.16-28.47-.14-42.7-.37-17.62-1.14-35.22-1.73-52.83,0-.23-.01-.45-.03-.68-.04-.65-.38-1.02-1.05-1.04-.56-.02-1.13-.03-1.69-.03-7.45,0-14.91-.01-22.36,0-2.14,0-4.27,.15-6.39,.62-4.83,1.06-8.03,3.92-9.73,8.5-.47,1.26-.72,2.61-1.08,3.91-.21,.73-.67,1.15-1.47,1.12-.23,0-.45,.01-.68,0-5.99-.12-5.02,.92-5.07-4.89-.05-6.33-.02-12.65,0-18.98,0-.55,.09-1.11,.13-1.63,1.01-.34,1.87,0,2.74,.21,6.62,1.56,13.33,2.3,20.13,2.3,25.64-.03,51.27-.02,76.91,0,6.36,0,12.62-.58,18.71-2.49,.3-.1,.66-.01,.99-.01Z"/><path class="cls-3" d="M734.84,212.67c0-1,.03-1.78,0-2.57-.05-.93,.38-1.48,1.21-1.78,.53-.19,1.05-.41,1.57-.62,5.03-2.03,7.54-5.89,8.02-11.16,.2-2.25,.32-4.51,.32-6.76,.04-16.37,.11-32.75-.32-49.11-.29-10.83-.75-21.66-1.12-32.5-.14-4.06-.21-8.13-.34-12.19-.05-1.56-.22-1.74-1.8-1.74-8.47,0-16.93,.02-25.4,.04-1.59,0-3.14,.29-4.68,.65-4.54,1.04-7.63,3.75-9.3,8.06-.65,1.67-1.09,3.43-1.63,5.16-.36,.08-.69,.22-1.01,.22-6.85-.1-5.72,1.2-5.79-5.52-.06-5.53-.01-11.07-.01-16.6,0-.9,0-1.81,.05-2.71,.03-.49,.33-.84,.86-.78,.67,.08,1.33,.2,1.99,.36,6.62,1.56,13.33,2.29,20.13,2.28,25.85-.02,51.7-.01,77.55,0,6.01,0,11.93-.62,17.7-2.4,1.34-.41,1.64-.2,1.65,1.18,.02,7.45,.01,14.91,0,22.36,0,.34-.02,.68-.1,1.01-.1,.48-.43,.79-.93,.82-.79,.04-1.58,.07-2.37,.04-1.12-.05-2.39,.4-3.31-.28-.92-.68-.72-2.05-1.11-3.09-.36-.95-.64-1.93-1.05-2.85-1.68-3.74-4.54-6.11-8.5-7.14-1.64-.43-3.3-.75-5.01-.75-8.01-.01-16.03-.04-24.04-.04-1.4,0-1.49,.12-1.52,1.61-.29,15.92-.67,31.83-.83,47.75-.16,15.58-.1,31.16-.1,46.75,0,2.14,.11,4.29,.36,6.42,.6,5.12,3.16,8.84,8.04,10.8,.31,.13,.61,.31,.93,.4,2.55,.72,2.26,1.19,2.23,3.42-.01,1.23-.31,1.48-1.7,1.46-1.92-.02-3.84-.05-5.75-.19-9.14-.66-18.27-.64-27.41-.01-2.34,.16-4.71,.02-7.49,.02Z"/><path class="cls-3" d="M1022.3,137.08c4.7,.16,9.42,.44,14.14,.44,4.61,0,9.23-.27,13.79-.42,.77,.68,.49,1.51,.53,2.25,.05,.89-.33,1.42-1.24,1.73-6.59,2.2-11.98,6.18-16.68,11.21-3.62,3.88-7.31,7.7-10.97,11.54-.54,.57-1.1,1.14-1.61,1.74-.32,.38-.32,.84-.02,1.24,.41,.54,.85,1.05,1.29,1.57,8.35,9.8,16.68,19.62,25.07,29.39,3.86,4.5,8.38,8.2,13.84,10.66,1.35,.61,1.93,2.24,1.3,3.63-.11,.25-.51,.47-.81,.5-.55,.06-1.12-.02-1.68-.05-9.14-.49-18.29-.43-27.43,.03-.79,.04-1.58,.1-2.37,.12-2.24,.05-2.56-.31-2.37-2.53,.05-.6,.32-.96,.83-1.33,2.32-1.68,2.61-2.59,1.69-5.12-1.06-2.91-2.81-5.4-4.86-7.68-3.02-3.36-6.07-6.69-9.12-10.03-2.51-2.76-5.02-5.51-7.53-8.26-.53-.58-1.06-1.17-1.63-1.72-.13-.13-.43-.19-.6-.13-.17,.06-.36,.3-.37,.48-.06,.56-.05,1.13-.05,1.69,0,7-.01,14.01,0,21.01,0,1.13,.11,2.25,.2,3.38,.23,2.98,1.62,5.07,4.53,6.12,1.55,.56,2.05,1.86,1.49,3.44-.09,.26-.45,.55-.72,.58-.66,.09-1.35,.09-2.02,.05-8.91-.54-17.83-.63-26.75-.11-1.19,.07-1.41-.14-1.46-1.25-.01-.34,0-.68,0-1.02,0-.72,.15-1.27,1.01-1.5,4.46-1.15,5.95-4.26,5.94-8.62-.07-21.24-.03-42.48-.08-63.72-.02-9.15-.82-18.28-1.42-27.41-.12-1.82-.58-3.57-1.33-5.23-1.26-2.8-3.17-4.88-6.27-5.73-1.62-.44-1.6-.54-1.62-2.04,0-.45,.02-.9,.02-1.35,0-.66,.36-1.04,.94-1.24,.53-.19,1.08-.33,1.62-.49,7.29-2.17,14.2-5.15,20.48-9.51,.86-.59,1.69-1.03,2.78-1.05,2.49-.06,2.67,.03,2.67,2.58,.01,14.69,0,29.37,0,44.06,0,11.98,0,23.95,0,35.93,0,.9-.02,1.81,.07,2.71,.03,.28,.44,.56,.78,.31,.45-.33,.85-.72,1.25-1.12,4.26-4.2,8.52-8.41,12.78-12.62,1.69-1.68,3.25-3.46,4.25-5.66,1.15-2.52,.89-4.79-1.12-6.83-1.56-1.59-1.51-1.64-1.14-4.63Z"/><path class="cls-11" d="M192.25,33.79c-.16,11.55-4.6,20.96-13.95,27.93-10.31,7.68-25.24,7.56-35.44,.02-8.79-6.49-13.43-15.28-14.02-26.19-.49-8.93,1.95-16.97,7.61-23.92,12.35-15.16,34.69-15.76,47.78-.3,5.45,6.43,8.11,13.97,8.02,22.46Z"/><path class="cls-3" d="M664.16,208.98c.12,.44,.17,.55,.18,.66,.21,3.48-.14,3-2.81,2.84-7.9-.47-15.79-.36-23.69,.06-.9,.05-1.8,.12-2.71,.13-1.29,.01-1.77-.25-1.8-1.03-.08-1.98-.18-2.73,1.29-2.98,.11-.02,.21-.09,.32-.11,3.57-.8,4.95-3.23,4.97-6.67,0-1.69,.03-3.39,.03-5.08,0-9.48-.01-18.97,0-28.45,0-3.97-.33-7.89-1.38-11.73-.57-2.08-1.37-4.06-2.58-5.86-2.36-3.53-5.67-5.4-9.9-5.63-3.9-.22-7.62,.62-11.2,2.12-.62,.26-1.21,.6-1.79,.96-2.38,1.47-3.63,3.51-3.63,6.42,0,7.45-.19,14.9-.25,22.35-.06,7.34-.06,14.68-.06,22.01,0,1.35,.08,2.71,.16,4.06,.16,2.94,1.57,4.88,4.52,5.55,.44,.1,.89,.17,1.32,.29,.65,.18,.85,.7,.81,1.3-.05,.76,.3,1.62-.45,2.2-.24,.18-.63,.22-.95,.2-1.69-.06-3.38-.18-5.07-.24-7.22-.28-14.44-.24-21.66,.23-.79,.05-1.58,.05-2.36,.04-.21,0-.44-.11-.62-.23-.75-.51-.55-3.17,.3-3.6,.8-.41,1.65-.73,2.47-1.1,2.17-.96,3.27-2.69,3.5-5,.1-1.01,.12-2.03,.12-3.04,0-7.23,.07-14.45-.07-21.68-.15-7.56-.5-15.12-.81-22.67-.04-1-.26-2.01-.54-2.98-.68-2.36-2.27-3.84-4.63-4.47-.87-.23-1.75-.4-2.71-.61-.07-.48-.18-.91-.18-1.34,.02-2.13,.02-2.19,2.17-2.61,7.49-1.45,14.56-3.97,21.06-8.01,1.01-.63,2.07-.81,3.22-.77,1.32,.05,1.55,.24,1.55,1.6,.01,2.25,0,4.51,0,6.81,.68,.46,1.2-.15,1.74-.48,3.17-1.96,6.43-3.74,9.87-5.18,6.73-2.82,13.59-3.02,20.52-.92,6.47,1.96,10.91,6.15,13.31,12.48,1,2.65,1.66,5.39,1.82,8.23,.09,1.69,.15,3.38,.15,5.08,.01,11.97,0,23.93,.02,35.9,0,1.69,.16,3.38,.28,5.06,.18,2.54,1.6,4.13,3.91,5.03,.73,.29,1.47,.58,2.24,.88Z"/><path class="cls-3" d="M1309.33,143.42c1.4-.83,2.35-1.41,3.31-1.98,2.91-1.73,5.92-3.26,9.08-4.51,6.46-2.56,12.99-2.58,19.57-.65,6.63,1.95,11.13,6.23,13.53,12.69,1.51,4.07,2.01,8.31,2.01,12.64-.01,12.42,0,24.84,0,37.26,0,1.13,.02,2.26,.06,3.39,.09,2.89,1.4,4.93,4.2,5.9,.11,.04,.22,.06,.32,.11,2.09,.89,2.22,1.09,2.03,3.21-.07,.8-.44,1.12-1.36,1.09-1.01-.04-2.03-.13-3.04-.18-7.79-.4-15.57-.23-23.35,.2-2.72,.15-3.88,.7-2.99-3.61,.79-.27,1.64-.54,2.48-.85,2.1-.79,3.3-2.31,3.5-4.55,.12-1.35,.25-2.7,.26-4.05,.02-10.28,.04-20.55,0-30.83-.02-3.61-.18-7.23-1.02-10.77-.55-2.31-1.31-4.55-2.55-6.6-2.42-3.97-5.95-6.06-10.59-6.23-3.79-.14-7.4,.67-10.87,2.14-.72,.3-1.4,.72-2.07,1.14-2.16,1.37-3.25,3.25-3.28,5.9-.07,8.24-.32,16.48-.41,24.72-.07,7-.02,14-.01,21,0,1.47,.02,2.92,.38,4.37,.51,2.04,1.62,3.44,3.69,4,.54,.15,1.08,.36,1.63,.42,.9,.1,1.06,.68,1.06,1.41,0,.45,.01,.9-.01,1.35-.04,.65-.37,1.04-1.05,1.03-.45,0-.9-.05-1.35-.07-8.57-.46-17.15-.51-25.72,.06-.23,.01-.45,.02-.68,.04-2.63,.21-2.61-.18-2.57-2.6,.01-.8,.43-1.23,1.11-1.51,.31-.13,.63-.25,.95-.36,3.24-1.05,4.58-3.44,4.74-6.67,.01-.23,.03-.45,.03-.68-.05-8.58,0-17.16-.18-25.74-.14-6.43-.56-12.86-.86-19.29-.04-.79-.04-1.59-.18-2.36-.55-2.92-2.14-4.92-5.12-5.63-.55-.13-1.11-.23-1.66-.33-.82-.15-1.08-.7-1.06-1.46,0-.34,.01-.68,0-1.02-.02-.8,.38-1.25,1.14-1.42,1.32-.3,2.63-.63,3.95-.93,6.21-1.39,12.06-3.7,17.53-6.96,.67-.4,1.36-.85,2.1-1.05,2.63-.71,3.39-.05,3.36,2.68-.03,1.89,0,3.78,0,6.12Z"/><path class="cls-3" d="M877.57,166.41c-3.57-15.16-12.82-25.35-27.94-29.72-8.05-2.32-16.24-2.34-24.44-.58-5.82,1.25-11.13,3.61-15.85,7.25-12.49,9.61-18.19,26.6-13.88,41.8,3.73,13.14,11.93,22.28,24.86,26.98,5.14,1.88,10.52,2.42,16.62,2.58,1.59-.12,3.85-.2,6.09-.47,7.29-.91,14-3.34,19.91-7.81,12.07-9.14,18.13-25.19,14.63-40.03Zm-20.14,20.93c-.68,3.2-1.73,6.28-3.25,9.2-3.97,7.6-11.45,11.74-20.86,10.55-6.54-.82-11.28-4.21-14.53-9.84l-4.83-22.53c-.06-5.46,.51-10.82,2.12-16.05,1.06-3.48,2.58-6.73,4.93-9.54,3.43-4.11,7.86-6.31,13.18-6.7,2.14-.16,4.28-.16,6.4,.26,5.64,1.11,9.87,4.21,12.85,9.09,2.52,4.11,3.82,8.65,4.53,13.35,1.13,7.42,1.01,14.84-.54,22.21Z"/><path class="cls-3" d="M566.03,201.43c-.1,.04-.22,.03-.33,.04-3.5,.28-5.04-.82-5.82-4.18-.37-1.55-.58-3.11-.56-4.7,.07-5.87,.1-11.75,.22-17.62,.11-5.3,.34-10.61,.47-15.91,.04-1.58,.04-3.17-.12-4.74-.81-7.87-4.73-13.5-12.11-16.55-2.51-1.04-5.14-1.69-7.82-2.12-5.61-.92-11.26-.88-16.89-.5-5.07,.34-10.09,1.18-15,2.52-2.03,.56-2.06,.56-2.07,2.78-.02,4.3-.01,8.59,0,12.88,0,.45,0,.9,.04,1.35,.05,.66,.43,1.02,1.07,1.08,.45,.04,.91-.03,1.35,.04,1.41,.21,2.4-.35,3.09-1.56,.22-.39,.53-.73,.82-1.08,5.14-6.44,11.96-8.05,19.72-6.78,3.62,.59,6.12,2.73,7.63,6.04,1.97,4.34,2.1,8.96,1.98,13.61-.01,.51-.39,.78-.9,.77-.79-.01-1.59,.02-2.37-.1-4.17-.65-8.32-.45-12.48,.11-5.76,.79-11.27,2.37-16.23,5.47-8.3,5.2-12.16,12.75-11.66,22.53,.26,4.96,2.25,9.12,5.73,12.65,6.38,6.46,19.07,9.52,28.33,5.14,2.66-1.26,5.14-2.82,7.54-4.51,1-.7,2.01-1.39,2.91-2.02,.92,.27,1.12,.99,1.52,1.51,3.09,3.95,7.29,5.92,12.09,6.83,.94,.17,1.73,.07,2.52-.57,4.12-3.34,8.28-6.63,12.49-10-1.27-2.44-2.9-3.18-5.16-2.41Zm-25.15-.09c-4.29,2.11-8.84,2.72-13.49,1.97-5.96-.97-10.82-6.48-11.46-12.64-.19-1.9-.18-3.83,.21-5.72,1.34-6.53,6.13-10.95,12.99-11.99,3.6-.55,7.19-.27,10.77,.24,1.72,.25,1.84,.44,1.9,2.15,.14,3.94,.24,7.89,.36,11.83h.19c0,3.94-.05,7.88,.02,11.82,.02,1.21-.49,1.85-1.49,2.34Z"/><path class="cls-3" d="M1217.47,166.32c15.36,.01,30.71,.01,46.07,0,5.1-.01,4.67,.56,3.99-4.51-1.4-10.51-6.86-18.22-16.28-23.04-5.75-2.94-11.94-4-18.36-3.81-9.46,.28-17.73,3.56-24.21,10.46-10.1,10.75-14.19,23.54-10.97,38.05,3.07,13.87,11.48,23.52,24.88,28.57,4.58,1.72,9.39,2.42,14.27,2.59,5.9,.21,11.7-.44,17.41-2.02,1.38-.39,2.38-1.06,3.18-2.27,2.56-3.86,5.21-7.65,7.82-11.47,.19-.28,.37-.57,.55-.86,.27-.44,.2-.87-.09-1.25-.41-.52-.75-1.13-1.5-1.33-.28,.14-.59,.27-.87,.46-5.26,3.4-11.07,4.96-17.29,5.11-8.3,.2-15.57-2.38-21.57-8.14-6.68-6.42-9.93-14.38-10.05-23.63-.05-3.11,.09-2.91,3.02-2.91Zm-2.37-9.17c.23-8.09,6.65-17.3,18.66-15.81,.44,.06,.88,.17,1.33,.25,7.26,1.25,11.59,5.71,12.63,13,.03,.22,.05,.45,.07,.67,.29,4.14,.54,3.69-3.33,3.7-4.39,.02-8.79,0-13.18,0-4.85,0-9.69,.01-14.54,0-1.51-.01-1.68-.24-1.64-1.8Z"/><path class="cls-11" d="M54.32,79.9c.28-10.61,4.36-19.24,13.38-25.17,9.05-5.95,21.57-5.25,30.29,2.04,14.02,11.72,14.11,33.96,.8,45.81-9.69,8.63-24.21,8.81-34.07,.37-7.23-6.19-10.61-15.43-10.39-23.04Z"/><path class="cls-3" d="M638.82,256.48c3.37-.18,6.52-.35,9.68-.52,1.01-.05,2.03-.11,3.04-.14,.61-.02,1.16,.19,1.22,.87,.09,1.04,.11,1.65-.84,1.92-.65,.19-1.33,.3-1.95,.55-2.05,.84-3.35,2.26-3.31,4.61,0,.23,0,.45,0,.68-.19,15.92-.69,31.83-.49,47.76,.01,.79-.01,1.58,.02,2.37,.11,2.44,1.42,3.97,3.7,4.71,.64,.21,1.32,.31,1.97,.51,.86,.26,1.1,.77,.94,1.85-.07,.49-.31,.88-.83,.89-1.01,.02-2.03,.03-3.04-.06-6.43-.58-12.85-.62-19.27,0-.9,.09-1.8,.09-2.7,.09-.47,0-.91-.19-1-.71-.11-.65-.3-1.41,.41-1.82,.57-.33,1.26-.45,1.9-.69,2.23-.83,3.54-2.33,3.54-4.81,0-7.23,.1-14.45-.26-21.68-.02-.45-.08-.9-.15-1.34-.08-.49-.39-.79-.89-.86-.67-.09-1.34-.21-2.01-.24-8.12-.44-16.25-.51-24.37-.02-3.31,.2-2.79,.27-3.02,3.15-.55,6.77-.3,13.54-.32,20.32-.01,3.34,1.03,4.61,4.26,5.59,.54,.16,1.1,.27,1.63,.45,.87,.3,.68,1.05,.67,1.7-.02,.7-.49,.98-1.12,.97-1.13-.02-2.26-.05-3.38-.14-6.09-.52-12.17-.55-18.26,.02-1.01,.09-2.03,.11-3.04,.12-.64,0-1.08-.3-1.1-.99-.02-.66-.15-1.4,.69-1.71,.64-.23,1.31-.36,1.93-.61,2.07-.85,3.27-2.34,3.3-4.65,0-.23,0-.45,0-.68-.05-11.74,.13-23.49-.29-35.23-.17-4.85-.15-9.71-.26-14.56-.06-2.8-1.06-4.14-3.64-5.04-.53-.18-1.1-.27-1.64-.42-.21-.06-.44-.14-.61-.27-.65-.49-.51-1.19-.38-1.84,.09-.48,.47-.75,.98-.73,.9,.02,1.81,.03,2.7,.11,6.65,.59,13.3,.56,19.96,.01,.9-.07,1.8-.12,2.7-.13,.7-.01,1.36,.07,1.46,.99,.12,1.07-.09,1.52-.97,1.87-.42,.17-.87,.24-1.29,.4-2.11,.8-3.27,2.28-3.39,4.58-.32,6.32-.67,12.63-.53,18.96,.03,1.35,.14,1.46,1.58,1.6,9.13,.87,18.26,.75,27.39-.03,.9-.08,1.12-.6,1.12-1.35,0-2.94,.04-5.87,0-8.81-.04-3.16-.13-6.32-.24-9.48-.11-3.36-1-4.51-4.26-5.63-.42-.15-.88-.25-1.27-.45-.77-.4-.56-1.16-.51-1.8,.04-.47,.39-.82,.91-.82,1.01,.01,2.03,.06,3.04,.11,3.38,.17,6.76,.35,9.94,.52Z"/><path class="cls-3" d="M966.71,197.77c-1.64,4.05-3.3,8.11-4.92,12.19-.39,.98-1.18,1.3-2.06,1.54-4.47,1.23-8.99,2.25-13.6,2.66-5.06,.45-10.12,.7-15.22,.28-19.13-1.58-33.76-14.74-36.67-33.64-2.98-19.39,8.58-39.32,29.48-44.44,6.55-1.6,13.17-1.75,19.84-1,5.63,.63,11.11,1.88,16.51,3.55,1.28,.39,1.83,.97,1.9,2.32,.27,5.19,.66,10.37,.98,15.55,.06,.91-.26,1.22-1.14,1.29-.34,.02-.68-.02-1.02,.02-1.87,.24-3.08-.28-3.85-2.26-1.12-2.85-3.01-5.27-5.17-7.47-8.64-8.86-22.76-7.3-29.85,.21-2.6,2.75-4.54,5.9-5.78,9.46-3.47,9.99-3.62,19.9,.84,29.67,1.52,3.31,3.46,6.36,6.03,8.94,8.13,8.19,17.78,10.7,28.85,7.45,3.74-1.1,6.93-3.24,9.77-5.9,2.06-1.93,2.08-1.92,5.06-.42Z"/><path class="cls-3" d="M760,286.38c-1.16-13.77-8.11-23.49-20.9-28.65-10.03-4.05-20.29-3.89-30.38,.01-8,3.1-13.98,8.56-17.71,16.35-2.23,4.65-3.16,9.6-3.23,14.74-.22,15.11,8.27,27.44,22.44,32.44,4.39,1.55,8.94,2.32,13.75,2.2,3.73,.13,7.53-.36,11.23-1.42,11.13-3.19,19.04-9.99,23.04-21,1.72-4.73,2.18-9.67,1.76-14.67Zm-18.42,17.51c-.69,2.98-1.69,5.84-3.26,8.49-3.55,5.96-8.91,8.39-15.67,7.99-6.3-.37-10.77-3.57-13.67-9.11-1.59-3.04-2.57-6.28-3.1-9.63-1.43-9.1-1.45-18.21,.51-27.26,.62-2.88,1.63-5.63,3.14-8.18,2.9-4.93,7.14-7.67,12.89-8.11,7.51-.57,13.14,2.53,16.61,9.25,1.72,3.34,2.66,6.93,3.21,10.63,.23,1.57,.5,3.13,.56,4.71,.1,2.25,.03,4.51,.03,6.77,.23,4.87-.15,9.7-1.25,14.45Z"/><path class="cls-3" d="M929.12,260.94c-2.59-1.89-5.49-3.11-8.57-3.93-4.74-1.25-9.59-1.36-14.46-1.1-2.59,.15-5.18,.28-6.81,.37-5.94,.09-10.91,.3-15.86-.3-.6-.08-1.16-.01-1.3,.71-.12,.66-.22,1.37,.51,1.8,.29,.16,.62,.26,.93,.38,3.5,1.33,4.26,2.35,4.28,5.97,.09,16.15,.15,32.31,.22,48.46,0,.45-.02,.91-.01,1.36,.04,2.35-1.24,3.78-3.31,4.61-.62,.25-1.31,.36-1.94,.59-.81,.3-.79,1.01-.73,1.7,.06,.65,.45,1.03,1.1,1.02,.91,0,1.81,0,2.71-.09,6.32-.63,12.63-.6,18.94,0,1.01,.09,2.03,.08,3.05,.06,.51-.01,.77-.39,.87-.86,.22-.97-.08-1.59-.92-1.89-.53-.19-1.09-.29-1.63-.47-2.27-.75-3.59-2.25-3.59-4.74,0-6.32-.02-12.65,0-18.97,0-1.12,.32-1.32,1.49-1.03,7.55,1.86,14.83,.95,21.77-2.36,6.41-3.06,10.08-8.2,10.51-15.4,.4-6.55-1.86-11.95-7.25-15.89Zm-9.53,21.91c-1.13,4.56-4.02,7.41-8.77,8.27-2.25,.41-4.47,.51-6.71,.03-1.36-.3-1.51-.4-1.51-1.75-.01-4.4,.03-8.79,.05-13.19v-.67h.25c0-4.62-.02-9.24,.01-13.86,.01-1.8,.09-1.84,1.94-1.98,2.03-.16,4.06-.24,6.08,.02,4.58,.58,7.7,3.23,8.75,7.72,1.2,5.12,1.18,10.31-.09,15.41Z"/><path class="cls-3" d="M1187.1,319.58c-2.76-.56-4.16-2.51-5.13-4.92-.25-.62-.51-1.25-.76-1.87-1.3-3.25-2.6-6.49-3.9-9.74-6.08-15.28-12.17-30.57-18.24-45.87-1.02-2.58-.9-2.22-3.42-2.24-1.89-.01-1.89,.02-2.64,1.9-.29,.73-.53,1.48-.81,2.22-6.48,17.19-12.96,34.38-19.44,51.57-1.51,3.99-3.38,7.67-7.84,9.15-.69,.23-.91,1.16-.65,2.06,.2,.66,.72,.79,1.32,.74,.57-.05,1.13-.09,1.69-.16,4.05-.55,8.1-.51,12.15,.01,.67,.09,1.35,.14,2.02,.15,.83,.02,1.12-.38,1.2-1.26,.08-.95-.35-1.49-1.17-1.81-1.72-.68-2.33-2.06-2.29-3.77,.02-1.35,0-2.74,.31-4.03,.56-2.3,1.35-4.54,2.05-6.8,.28-.89,.92-1.15,1.82-1.15,5.64,.02,11.28,.04,16.92-.01,1.25-.01,1.8,.55,2.17,1.65,.7,2.02,1.57,3.99,2.27,6.01,.4,1.17,.71,2.38,.88,3.6,.42,2.87-.14,3.74-2.89,4.83-.94,.37-1.14,.74-1.05,1.75,.09,.91,.7,1.04,1.43,1.01,1.01-.05,2.03-.08,3.04-.18,3.71-.37,7.43-.44,11.16-.42,2.14,.14,4.28,.3,6.42,.43,1.12,.07,2.25,.14,3.38,.16,.86,.01,1.13-.36,1.19-1.26,.07-.93-.29-1.56-1.19-1.75Zm-43.16-21.39c.61-3.51,6.07-20.48,7.33-22.6,2.79,7.61,5.53,15.07,8.28,22.57-2.94,.53-13.07,.52-15.61,.03Z"/><path class="cls-3" d="M816.11,323.47c-3.51,.05-6.74-.35-9.88-1.36-.96-.31-1.9-.7-2.83-1.11-2.36-1.04-3.79-2.6-3.62-5.46,.11-1.89-.34-3.81-.51-5.72-.06-.61,.18-1.09,.83-1.28,.65-.19,1.29-.43,1.94-.6,1.55-.42,1.76-.35,2.21,1.12,.47,1.52,1.02,2.99,1.86,4.34,2.06,3.31,4.89,5.62,8.78,6.36,7.28,1.39,15.58-3.72,14.06-13.82-.32-2.11-1.59-3.7-3.34-4.9-1.41-.96-2.95-1.66-4.58-2.14-2.6-.76-5.21-1.47-7.79-2.27-1.72-.53-3.44-1.09-5.1-1.79-6.07-2.53-9.45-7.12-10.15-13.64-.47-4.32-.07-8.59,1.45-12.67,2.67-7.17,8-11.26,15.34-12.89,6.1-1.35,12.11-.73,18.06,.94,1.08,.31,2.13,.76,3.22,1.04,1.83,.47,2.9,1.37,2.86,3.48-.04,2.36,.22,4.73,.31,7.1,.04,1.05-.27,1.35-1.37,1.53-.56,.09-1.12,.15-1.68,.18-1.18,.08-1.36-.04-1.72-1.11-.25-.75-.46-1.51-.75-2.24-2.99-7.36-10.74-9.45-16.49-7.41-6.66,2.36-9.35,9.15-7.54,15.39,.62,2.14,2.09,3.7,3.97,4.89,1.93,1.21,4.05,1.98,6.21,2.64,2.26,.69,4.55,1.31,6.8,2.03,1.39,.44,2.78,.94,4.12,1.52,5.96,2.57,9.09,7.16,9.61,13.59,.25,3.07,0,6.11-.86,9.06-2.28,7.93-7.77,12.44-15.56,14.43-2.65,.68-5.34,.85-7.85,.78Z"/><path class="cls-3" d="M1038.71,255.06c5.21,1.49,10.63,1.32,16.04,1.32,9.93,0,19.87,0,29.8,0,5.07,0,10.16,.26,14.94-1.35,.78,.68,.59,1.39,.59,2.03,.02,3.84,.02,7.68,0,11.52,0,1.1-.27,1.29-1.46,1.3-1.63,.02-1.66,0-2.26-1.4-.4-.93-.74-1.9-1.22-2.78-1.2-2.2-3.02-3.58-5.55-4.01-3.93-.67-7.88-.36-11.83-.36-.63,0-.98,.48-1,1.13-.05,1.69-.08,3.39-.13,5.08-.44,15.35-.21,30.71-.25,46.07,0,3.61,.95,4.84,4.33,5.87,.43,.13,.88,.22,1.3,.36,.83,.28,1.12,.89,.93,1.88-.13,.68-.61,.92-1.21,.9-1.13-.02-2.26-.05-3.38-.15-6.09-.55-12.17-.59-18.26,0-1.01,.1-2.03,.14-3.04,.15-.92,0-1.27-.32-1.35-1.13-.06-.71,.02-1.38,.82-1.65,.75-.25,1.54-.39,2.26-.69,1.94-.8,3.07-2.24,3.17-4.39,.03-.79,.02-1.58,.02-2.37-.01-16.03,.11-32.07-.34-48.1-.09-3.14-.05-3.06-2.96-3.01-3.04,.05-6.08-.12-9.13,.25-3.38,.41-5.58,2.2-6.9,5.23-.23,.52-.39,1.06-.63,1.57-.23,.48-.15,1.25-.81,1.37-.76,.14-1.56,.13-2.33,.06-.2-.02-.47-.45-.52-.73-.1-.55-.08-1.12-.08-1.69,0-3.27-.01-6.55,0-9.82,0-.78-.15-1.59,.45-2.45Z"/><path class="cls-3" d="M1232.48,256.38c4.94,.06,8.78-.05,12.61-.36,1.12-.09,2.25-.15,3.38-.19,.6-.02,1.1,.18,1.25,.86,.21,.95-.08,1.63-.85,1.93-.53,.2-1.09,.3-1.61,.51-2.1,.81-3.29,2.3-3.41,4.58,0,.11,0,.23-.01,.34-.12,7-.81,13.98-.71,20.99,.13,9.49,.03,18.98,.04,28.47,0,.9,.02,1.81,.07,2.71,.03,.5,.35,.8,.85,.88,.11,.02,.22,.06,.33,.05,4.62-.09,9.25,.24,13.87-.36,4.51-.59,7.74-2.84,9.85-6.83,1.48-2.78,1.51-2.74,4.29-1.63,.76,.3,1.04,.72,.87,1.53-.86,4.08-1.69,8.18-2.55,12.26-.23,1.09-.56,1.35-1.61,1.24-2.13-.22-4.26-.46-6.39-.75-4.49-.6-9.01-.59-13.53-.6-8.13-.01-16.26,0-24.39-.02-.71,0-1.65,.36-1.97-.75-.22-.78,.19-1.21,1.59-1.72,.53-.19,1.09-.31,1.59-.57,1.63-.84,2.58-2.16,2.68-4.02,.04-.68,.02-1.36,.02-2.03,0-14.35,0-28.69,0-43.04,0-1.92-.1-3.83-.51-5.72-.6-2.75-1.85-4.83-4.84-5.42-.53-.1-1.09-.22-1.34-.86-.4-1.05,.24-2.1,1.38-2.04,3.38,.17,6.76,.4,9.05,.54Z"/><path class="cls-3" d="M986.02,256.48c3.46-.18,6.73-.35,9.99-.52,.9-.05,1.8-.08,2.7-.12,.63-.03,1.09,.22,1.24,.87,.22,.95-.08,1.64-.89,1.92-.64,.22-1.32,.32-1.95,.56-1.95,.77-3.09,2.2-3.28,4.32-.04,.45-.03,.9-.04,1.35-.11,16.02-.21,32.04-.32,48.07,0,.45-.01,.9,0,1.35,.12,2.84,1.04,4.12,3.65,5.01,.64,.22,1.32,.31,1.96,.52,.75,.24,1.08,1.01,.84,1.93-.16,.65-.64,.87-1.26,.84-1.13-.05-2.26-.08-3.38-.17-5.97-.52-11.94-.55-17.91,.03-.9,.09-1.8,.11-2.7,.15-.7,.03-1.37,0-1.5-.93-.15-1.08,.07-1.58,.89-1.92,4.77-2.01,4.88-2.12,4.85-7.17-.1-15.91-.27-31.82-.33-47.73-.01-3.29-1.37-5.34-4.7-5.99-.44-.09-.88-.23-1.28-.42-.8-.38-.57-1.13-.51-1.77,.04-.49,.4-.8,.92-.79,1.01,.02,2.03,.06,3.04,.11,3.38,.17,6.76,.34,9.95,.5Z"/><path class="cls-7" d="M584.22,398.61c0,1.12,0,2.25,0,3.37,0,9.15,0,18.3,0,27.44,0,2.98-.09,3.05-3,2.98-.34,0-.68,0-1.01-.05-.63-.1-1-.49-1.04-1.13-.05-.67-.05-1.35-.05-2.03,0-12.76,0-25.52,0-38.28,0-.68,.02-1.35,.06-2.03,.04-.68,.48-.97,1.1-1.03,.34-.03,.68,.02,1.01-.04,1.93-.33,3.05,.58,4.1,2.17,6.37,9.73,12.83,19.39,19.26,29.08,.61,.92,1.26,1.83,1.86,2.7,.98-.3,.68-.96,.68-1.44,.02-9.71,.02-19.42,.01-29.14,0-3.74-.11-3.38,3.58-3.34,1.06,.01,1.3,.31,1.36,1.47,.03,.68,.02,1.35,.02,2.03,0,12.54,0,25.07,0,37.61,0,.79,0,1.58-.05,2.37-.04,.65-.43,1-1.08,1.05-.34,.03-.68-.02-1.01,.04-1.78,.28-2.89-.43-3.88-1.97-4.72-7.3-9.56-14.52-14.35-21.77-1.99-3.01-3.99-6.02-5.99-9.03-.29-.44-.64-.85-.96-1.27l-.6,.23Z"/><path class="cls-7" d="M818.22,410.01c0-6.21,0-12.42,0-18.63,0-.9,0-1.81,.11-2.7,.03-.26,.37-.49,.59-.72,.07-.07,.21-.09,.32-.09,4.35-.11,4.09-.51,4.09,3.5,0,4.29,0,8.58,0,12.87,0,.79,.03,1.58,.08,2.37,.03,.5,.33,.82,.82,.9,.33,.06,.67,.08,1.01,.08,5.64,0,11.29,.02,16.93,0,1.54,0,1.74-.21,1.75-1.76,.03-4.97,.02-9.93,.01-14.9,0-3.36-.04-3.1,3.18-3.08,1.69,0,1.9,.23,1.94,1.98,.04,1.81,.01,3.61,.01,5.42,0,11.4,0,22.8,0,34.21,0,2.98-.08,3.03-3.02,2.97-.34,0-.68,0-1.01-.04-.64-.07-1.01-.45-1.05-1.09-.04-.79-.04-1.58-.04-2.37,0-4.4,0-8.81,0-13.21,0-.79,0-1.58-.03-2.37-.02-.63-.32-1.05-1-1.11-.34-.03-.68-.05-1.01-.05-5.53,0-11.06,0-16.59,0-.34,0-.68,.02-1.01,.06-.49,.07-.83,.35-.87,.86-.06,.79-.09,1.58-.09,2.36,0,4.52,0,9.03,0,13.55,0,.79-.03,1.58-.09,2.36-.03,.5-.35,.9-.83,.92-1.12,.06-2.24,.05-3.36,0-.52-.02-.75-.48-.77-.95-.05-.9-.06-1.8-.06-2.71,0-6.21,0-12.42,0-18.63Z"/><path class="cls-10" d="M1124.18,410.22c.09,2.7,.12,5.41,.28,8.12,.18,3.05,1.26,5.73,3.77,7.63,3.24,2.45,6.83,2.84,10.56,1.45,3.83-1.42,5.96-4.35,6.54-8.34,.21-1.44,.09-2.93,.12-4.39,.02-.83-.42-1.25-1.23-1.27-1.13-.03-2.26-.03-3.38-.03-1.35,0-2.71,.02-4.06,0-2.01-.04-2.13-.17-2.15-2.09-.02-2.32,.04-2.41,2.48-2.42,3.84-.02,7.67-.02,11.51,0,1.69,.01,1.93,.23,1.93,1.99,0,2.59-.11,5.19-.19,7.78-.23,7.1-5.51,12.25-11.66,13.6-5.89,1.29-11.19,.02-15.54-4.4-1.88-1.91-3.01-4.2-3.45-6.83-.17-1-.35-2.01-.39-3.02-.22-5.97-.39-11.94,.24-17.91,.74-6.97,6.53-11.16,11.49-12.23,2.58-.56,5.16-.51,7.72,.03,5.59,1.16,10.34,6.07,11.37,11.72,.15,.85-.15,1.22-1.08,1.28-.34,.02-.68-.02-1.01,.03-1.86,.28-2.73-.46-3.44-2.29-2.67-6.98-10.79-8.38-16.01-4.65-2.69,1.92-3.91,4.62-4.12,7.8-.19,2.81-.2,5.64-.3,8.46Z"/><path class="cls-7" d="M1273.32,410.29c-.28-1.55-.84-3.03-1.64-4.42-1.37-2.42-3.45-3.93-6.11-4.39-3.62-.62-7.2-.62-10.25,1.99-.76,.65-1.05,.49-1.29-.47-.37-1.52-.37-1.53-1.62-1.56-.67-.01-1.35-.01-2.02,.03-.65,.03-1.05,.38-1.09,1.04-.04,.68-.05,1.36-.05,2.03v18.94c0,6.77-.01,13.53,.01,20.3,.01,2.19,.12,2.27,2.29,2.29,2.36,.01,2.42-.05,2.47-2.44,.01-.67,0-1.35,0-2.03,.01-3.6,.01-7.21,.03-10.82,0-.73,.54-1.01,1.11-.55,1.35,1.07,2.79,1.99,4.5,2.22,6.64,.93,12-.83,13.68-9.05,.88-4.34,.77-8.75-.02-13.11Zm-4.68,12.04c-.5,2.51-1.59,4.68-4.25,5.65-4.24,1.56-8.42-.4-9.59-4.74-1.14-4.21-1.13-8.5,.02-12.7,1.15-4.22,5.14-6.17,9.31-4.79,1.96,.65,3.25,1.97,3.96,3.88,.23,.63,.5,1.27,.58,1.93,.21,1.79,.33,3.59,.49,5.38-.16,1.81-.17,3.64-.52,5.39Z"/><path class="cls-7" d="M961.99,404.03c.8-.36,1.13-.45,1.38-.64,2.57-1.99,5.53-2.39,8.65-2.14,5.01,.4,8.62,3.73,9.38,8.69,.09,.56,.13,1.12,.14,1.69,.02,6.32,.03,12.65,.01,18.97,0,1.58-.24,1.77-1.74,1.82-2.93,.11-3.01,.05-3.02-2.92-.01-5.31,0-10.61,0-15.92,0-1.36-.07-2.69-.58-3.99-.75-1.93-2.08-3.19-4.04-3.79-1.77-.54-3.57-.55-5.33,.01-2.32,.75-3.8,2.35-4.4,4.73-.36,1.43-.47,2.89-.46,4.36,.02,4.74,.01,9.48,0,14.23,0,.79-.02,1.58-.1,2.36-.05,.47-.33,.82-.87,.87-.11,0-.22,.04-.34,.04-3.44,.06-3.48,.18-3.48-3.18,.02-12.76,0-25.52,0-38.27,0-.68,.01-1.35,.05-2.03,.04-.66,.44-1.01,1.08-1.05,.56-.04,1.13-.04,1.69-.03,1.77,.02,1.92,.13,1.94,1.94,.03,3.5,.01,7,.01,10.5,0,1.11,0,2.22,0,3.76Z"/><path class="cls-7" d="M774.62,411.74c-.01-1.23-.23-2.48-.5-3.68-.56-2.45-2.06-4.22-4.27-5.39-1.31-.68-2.7-1.14-4.18-1.3-2.25-.24-4.51-.28-6.76-.03-3.05,.34-5.58,1.62-7.52,4.33,.25,.4,.35,.61,.5,.77,.31,.33,.64,.64,.97,.94,1.36,1.19,1.41,1.25,2.74,.04,1.5-1.37,3.22-2.03,5.22-2.06,.9-.01,1.81-.04,2.71,.02,4.2,.26,6.11,2.2,6.33,6.38,.13,2.52-.07,2.76-2.5,2.79-1.7,.03-3.39-.04-5.08,.02-1.69,.07-3.4,.11-5.05,.42-2.79,.53-5.03,1.92-6.32,4.6-2.61,5.44,.47,11.85,6.39,12.8,4.03,.66,8.13,.73,11.71-1.89,.15-.11,.43-.04,.65-.05,.07,.21,.16,.41,.2,.62,.1,.56,.12,1.24,.84,1.26,1.21,.03,2.48,.45,3.59-.37,.15-.11,.25-.38,.27-.58,.06-.45,.08-.9,.08-1.35,0-6.1,.03-12.2-.02-18.29Zm-5.04,12.09c-.41,2.1-1.6,3.46-3.57,4.11-2.74,.9-5.54,.92-8.28,.03-2.04-.67-3.07-2.2-3.03-4.38,.03-2.03,.72-3.75,2.77-4.62,.94-.4,1.91-.66,2.94-.66,1.35-.01,2.7,0,4.05,0v-.02c1.35,0,2.7-.01,4.05,.01,.76,.01,1.31,.31,1.33,1.16,.04,1.47,.02,2.92-.26,4.37Z"/><path class="cls-7" d="M1033.86,401.42c-2.46-.38-4.96-.34-7.43-.04-2.56,.32-4.72,1.47-6.46,3.38-.63,.7-.69,1.17-.06,1.74,.8,.72,1.41,1.75,2.57,1.94,3.51-3.51,4.97-3.11,7.96-3.09,5.48,.04,7.61,2.37,7.27,7.77-.01,.12-.02,.23-.03,.34-.05,.67-.47,1.03-1.09,1.05-1.91,.04-3.84-.01-5.75,.06-1.92,.08-3.86,.08-5.73,.44-3.49,.66-6.11,2.64-6.85,6.21-1.32,6.26,2.16,10.81,7.99,11.33,3.86,.35,7.71,.38,11.15-2.48q.69,2.31,2.23,2.34c.34,0,.68,.01,1.02,0,1.58-.05,1.8-.21,1.8-1.75,.03-6.55,.03-13.1,.01-19.65-.02-5.64-3.44-8.8-8.6-9.59Zm3.66,22.44c-.49,2.51-2.2,3.88-4.56,4.41-2.09,.47-4.26,.46-6.36,.02-2.67-.56-3.89-2.12-3.91-4.71-.02-2.73,1.29-4.4,3.98-5.07,.33-.08,.67-.15,1-.15,1.57-.02,3.14-.01,4.71-.01h0c1.46-.01,2.92-.03,4.38-.01,.49,.01,.84,.3,.89,.82,.13,1.57,.17,3.15-.13,4.7Z"/><path class="cls-7" d="M644.57,411.18c-.09-5.61-3.25-9.05-8.8-9.79-2.47-.33-4.97-.37-7.43,.03-2.87,.46-5.35,1.67-6.87,4.29,.48,1.07,1.37,1.62,2.13,2.28,.47,.42,1.03,.45,1.48-.06,2.07-2.38,4.81-2.7,7.72-2.6,5.09,.18,7.15,2.33,7.05,7.41-.01,.22-.02,.45-.03,.68-.04,.66-.45,1.05-1.06,1.08-1.24,.06-2.49,.02-3.73,.07-2.48,.09-4.98,.05-7.43,.37-3.36,.45-6.07,2.18-7.03,5.55-1.84,6.46,1.58,11.46,7.67,12.06,3.87,.37,7.68,.28,11.02-2.15,.08-.05,.22,0,.36,0,.18,.61,.37,1.24,.59,1.96,1.16,0,2.28,.03,3.4-.01,.48-.02,.83-.32,.9-.83,.05-.34,.08-.68,.08-1.01,0-6.44,.08-12.88-.02-19.32Zm-4.88,12.08c-.32,2.83-2.06,4.46-4.72,5.03-2.1,.45-4.27,.44-6.38-.01-2.66-.59-3.82-2.13-3.82-4.79,.01-2.63,1.19-4.19,3.75-4.91,.32-.1,.65-.19,.99-.19,1.57-.02,3.14-.01,4.71-.01v-.09c1.47,0,2.93-.01,4.39,.01,.81,0,1.24,.45,1.22,1.26-.02,1.23,0,2.48-.14,3.7Z"/><path class="cls-7" d="M911.64,409.83c-.4-3.7-2.23-6.39-5.77-7.66-3.94-1.42-7.98-1.3-12-.35-.86,.21-1.74,.59-2.46,1.11-3.9,2.83-3.27,2.76-.38,5.26,.16,.15,.41,.19,.68,.31,1.16-1.2,2.35-2.47,4.08-2.84,2.34-.5,4.72-.54,7.05,.05,2.02,.51,3.38,1.8,3.88,3.86,.32,1.32,.3,2.68,.17,4.04-.04,.51-.37,.84-.86,.85-1.7,.06-3.39,.1-5.08,.09-2.15-.01-4.3,0-6.42,.4-2.8,.52-5.08,1.89-6.4,4.51-2.84,5.65,.58,12.24,6.84,13.03,3.96,.49,7.91,.48,11.36-2.07,.08-.06,.22-.05,.33-.06,.09,.2,.24,.39,.26,.6,.05,.92,.41,1.5,1.44,1.45,.78-.04,1.58-.02,2.36-.07,.5-.03,.85-.31,.89-.83,.06-.67,.09-1.35,.09-2.03,.01-5.87,0-11.75,0-17.62,0-.68,.01-1.36-.06-2.03Zm-4.75,12.96c-.26,3.07-1.93,4.97-4.94,5.55-.99,.19-2.02,.17-2.67,.22-1.7-.06-3.04-.05-4.34-.54-1.89-.71-2.91-2-3.01-4.03-.13-2.46,.7-4.06,2.65-4.99,.92-.45,1.9-.69,2.93-.69,2.69-.01,5.39-.04,8.09-.01,1.08,.01,1.32,.29,1.34,1.45,.02,1.02,.03,2.03-.05,3.04Z"/><path class="cls-7" d="M1080.4,418.28c4.39-.02,8.79,.03,13.19-.02,5.08-.05,4.61,.81,4.35-4.82-.07-1.43-.47-2.9-.96-4.27-2.58-7.3-11.07-10.37-17.81-6.5-2.79,1.6-4.53,4.07-5.42,7.08-1.42,4.75-1.39,9.57-.03,14.34,.3,1.07,.82,2.1,1.38,3.07,1.04,1.79,2.49,3.27,4.4,4.08,5.19,2.19,10.37,2.29,15.16-.92,3.34-2.24,3.45-2.31,.11-4.86-.15-.11-.41-.08-.66-.13-.42,.33-.87,.67-1.31,1.03-2.23,1.82-4.82,2.38-7.61,2.09-3.31-.35-5.68-2.02-6.87-5.2-.56-1.49-.91-3.01-.59-4.59,.86-.59,1.79-.37,2.67-.38Zm6.01-12.95c2.55,.28,4.44,1.54,5.66,3.78,.65,1.2,1.05,2.49,1.15,3.86,.09,1.22-.22,1.62-1.52,1.64-2.14,.05-4.29,.01-6.43,.01v-.03c-2.15,0-4.29,.03-6.43,0-.89-.02-1.22-.42-1.22-1.25,0-4.07,2.91-8.65,8.79-8Z"/><path class="cls-7" d="M880.46,408.55c-2.88-7.06-11.81-9.78-18.16-5.54-2.34,1.56-3.9,3.77-4.74,6.42-1.58,4.97-1.58,10-.04,14.98,.9,2.89,2.6,5.36,5.38,6.67,5.24,2.46,10.55,2.49,15.46-.77,3.52-2.33,3.35-2.25,.12-4.84-.14-.12-.4-.08-.66-.11-.69,.51-1.37,1.12-2.14,1.58-.77,.46-1.59,.85-2.44,1.12-5.32,1.67-10.21-.77-11.55-5.76-.31-1.19-.55-2.42-.21-3.66,.95-.59,1.99-.35,2.99-.35,4.62-.03,9.24-.01,13.87-.02,.79,0,1.57-.01,2.36-.04,.65-.04,1.03-.42,1.07-1.06,.19-2.97-.18-5.86-1.31-8.62Zm-5,6.06c-2.14,.05-4.29,.01-6.44,.01h0c-2.14-.01-4.29,.01-6.43-.02-.89-.02-1.24-.43-1.24-1.24,0-5.08,3.75-8.54,8.75-8.03,2.68,.27,4.62,1.66,5.83,4.06,.57,1.12,.85,2.33,1.01,3.56,.16,1.19-.2,1.64-1.48,1.66Z"/><path class="cls-7" d="M724.16,404.06c3.09-2.63,6.46-3.18,10.06-2.76,4.35,.5,7.77,3.58,8.66,7.87,.25,1.21,.43,2.46,.44,3.69,.05,5.87,.04,11.74,.01,17.62,0,1.67-.31,1.9-2.01,1.93-.56,.01-1.13,0-1.69-.04-.64-.05-1.04-.42-1.09-1.07-.06-.79-.07-1.58-.07-2.37,0-4.74,.02-9.49-.02-14.23,0-1.35-.05-2.72-.31-4.04-.55-2.87-2.65-4.8-5.55-5.14-1.11-.13-2.27-.12-3.37,.08-2.85,.52-4.8,2.58-5.26,5.48-.18,1.11-.17,2.25-.18,3.38-.02,4.86,0,9.71-.01,14.57,0,.79,0,1.58-.09,2.36-.03,.29-.28,.74-.51,.8-1.2,.31-2.44,.43-3.63-.02-.23-.09-.43-.53-.47-.83-.08-.67-.07-1.35-.07-2.03,0-8.24,0-16.49,0-24.73,0-.68,0-1.36,.05-2.03,.05-.62,.37-1.04,1.05-1.07,.45-.02,.9-.04,1.35-.04q1.98,0,2.7,2.63Z"/><path class="cls-7" d="M711.88,411.7c-.88-5.9-5.45-10.96-13.09-10.51-5.24,.31-9.17,3.25-10.84,8.22-.84,2.5-.77,5.1-.97,7.61,.12,1.65,.17,3.23,.37,4.8,.84,6.43,5.49,10.62,11.8,10.86,6.34,.25,11.55-3.67,12.67-10.22,.62-3.6,.6-7.15,.06-10.76Zm-4.97,11.18c-.77,3.27-3.47,5.37-6.84,5.56-3.35,.19-6.18-1.64-7.39-4.79-.24-.63-.47-1.28-.54-1.94-.17-1.68-.25-3.37-.33-4.58,.13-2.5,.11-4.52,.69-6.51,1.25-4.36,6.11-6.25,10.07-4.66,2.4,.96,3.83,2.72,4.39,5.18,.89,3.91,.87,7.85-.05,11.74Z"/><path class="cls-7" d="M1207.3,411.05c-1.44-6.67-6.07-10.07-12.92-9.87-4.34,.13-9.25,2.82-10.96,8.54-.68,2.3-.79,4.66-.77,7.88,.02,1.4,.09,3.63,.6,5.86,1.19,5.12,5.7,9.37,12.15,9.23,5.95-.14,10.35-3.47,11.76-9.24,1-4.11,1.02-8.28,.14-12.4Zm-4.91,12.19c-1.03,3.2-3.71,5.19-7.1,5.22-3.22,.02-6-1.84-7.06-4.83-.33-.95-.63-1.96-.67-2.95-.1-2.48-.09-4.96-.01-7.44,.02-.88,.29-1.78,.56-2.63,1.05-3.28,3.68-5.18,7.1-5.19,3.59-.01,6.18,1.95,7.25,5.43,.62,1.98,.59,4,.62,6.03-.01,2.14-.02,4.28-.69,6.36Z"/><path class="cls-7" d="M1234.68,429.88c-.86,.52-1.51,.96-2.2,1.33-3.26,1.79-6.69,1.93-10.16,.82-3.39-1.08-5.49-3.48-6.36-6.89-.33-1.3-.52-2.67-.53-4.01-.06-5.76-.03-11.52-.02-17.28,0-.56,.04-1.13,.12-1.68,.03-.19,.23-.46,.4-.51,1.21-.33,2.45-.33,3.66,0,.22,.06,.44,.52,.47,.82,.08,.78,.08,1.58,.08,2.37,0,4.74,.01,9.49,0,14.23,0,1.48,.11,2.93,.48,4.36,.69,2.68,2.41,4.31,5.08,4.85,4.24,.86,9.1-1.05,9.24-7.12,.1-4.29,.04-8.59,.05-12.88,0-1.81-.02-3.62,.02-5.42,.03-1.11,.31-1.35,1.45-1.4,.56-.03,1.13-.02,1.69,0,1.33,.04,1.54,.22,1.55,1.63,.03,4.18,.02,8.36,.02,12.54,0,4.41,0,8.81,0,13.22,0,.79,0,1.58-.03,2.37-.04,.82-.51,1.19-1.32,1.19-.34,0-.68,.03-1.02,.01-2.35-.14-1.8,.29-2.69-2.53Z"/><path class="cls-7" d="M1009.89,425.04c.73,.64,1.25,1.07,1.73,1.53,1.42,1.41,1.35,1.62,.05,2.94-4.98,5.07-17.77,4.82-21.3-5.21-1.67-4.73-1.69-9.53-.15-14.3,1.82-5.65,6.61-8.72,11.95-8.84,3.66-.08,6.94,.68,9.64,3.29,1.15,1.11,1.19,1.4,.15,2.46-.16,.16-.32,.32-.49,.47-1.21,1.1-1.44,1.7-3,.15-1.51-1.5-3.39-2.14-5.53-2.13-4.41,.02-7.75,2.73-8.61,7.1-.57,2.91-.59,5.83-.01,8.75,1.34,6.81,8.67,9.45,14.09,5.08,.43-.35,.84-.73,1.49-1.3Z"/><path class="cls-7" d="M938.6,405.55c-.92-.06-1.59-.09-2.26-.16-1.27-.13-1.47-.36-1.49-1.72-.02-1.66,.15-1.84,1.9-2.05,.55-.06,1.11-.13,1.75-.2,.49-2.28,.19-4.53,.25-6.76,.08-2.59,.11-2.65,2.66-2.61,.34,0,.68,.01,1.01,.04,.65,.05,1.05,.44,1.06,1.07,.04,2.26,.02,4.51,.06,6.77,.03,1.37,.26,1.61,1.53,1.67,1.01,.04,2.03,0,3.05,.03,1.79,.06,2.07,.39,1.99,2.29-.04,1.11-.3,1.42-1.39,1.46-1.24,.05-2.48,0-3.72,.04-1.14,.04-1.45,.29-1.45,1.38-.02,5.76-.07,11.51,.02,17.27,.04,2.74,1.14,3.76,3.92,4.14,.56,.08,1.13,.03,1.69,.11,.47,.07,.84,.39,.88,.88,.06,.67,.06,1.35,.03,2.03-.03,.63-.38,1.06-1.03,1.13-1.93,.19-3.85,.11-5.67-.62-2.8-1.13-4.09-3.42-4.52-6.27-.15-1-.1-2.03-.11-3.04-.01-5.08,0-10.16-.01-15.24,0-.44-.08-.88-.15-1.64Z"/><path class="cls-8" d="M920.75,407.14c0-5.19,0-10.38,0-15.56,0-.9,.02-1.8,.09-2.7,.05-.64,.45-.98,1.1-1.03,.11,0,.22-.02,.34-.02,3.41-.01,3.38-.32,3.38,3.23-.01,10.15,0,20.3,0,30.45,0,1.13-.02,2.26,.1,3.38,.22,2.17,.96,2.9,3.18,3.26,.44,.07,.9,.09,1.35,.1,1.6,.04,1.83,.2,1.78,2.08-.02,.75,.24,1.82-.79,1.97-2.37,.35-4.75,.21-6.9-1-1.88-1.07-2.98-2.76-3.27-4.88-.23-1.67-.32-3.37-.34-5.06-.04-4.74-.02-9.47-.02-14.21Z"/><path class="cls-7" d="M665.38,428.44c.13,.27,.3,.46,.32,.67,.26,3.25,.05,3.45-3.24,3.3-5.28-.25-7.83-3.62-7.86-7.95-.03-3.84-.02-7.68-.02-11.52,0-1.47,.03-2.94,0-4.4-.02-.89,.27-1.87-.27-2.65-.61-.88-1.67-.38-2.52-.52-.66-.11-1.01-.44-1.05-1.08-.03-.56-.04-1.13,.02-1.69,.05-.47,.35-.79,.85-.91,.86-.2,1.97,.28,2.58-.47,.76-.92,.34-2.17,.38-3.27,.05-1.13,0-2.26,.01-3.39,.04-2.48,.17-2.58,2.78-2.51,1.73,.05,1.96,.24,2,1.94,.04,1.58,0,3.16,.01,4.74q.03,2.83,2.71,2.88c.79,.01,1.58,0,2.37,.03,.78,.02,1.26,.4,1.29,1.22,.01,.23,.02,.45,.02,.68,0,1.54-.22,1.8-1.69,1.85-1.24,.04-2.48,.03-3.72,.07-.5,.02-.84,.3-.9,.82-.05,.45-.08,.9-.09,1.35,0,5.19,0,10.39,0,15.58,0,.68,.03,1.36,.13,2.02,.23,1.5,1.11,2.46,2.59,2.75,1.1,.22,2.22,.31,3.29,.46Z"/><path class="cls-9" d="M783.63,406.93c0-5.31,0-10.61,0-15.92,0-.79,0-1.58,.11-2.36,.03-.26,.36-.52,.61-.69,.16-.12,.43-.11,.66-.12,3.52-.04,3.4-.3,3.39,3.18,0,10.39,0,20.78,0,31.16,0,1.01-.02,2.04,.14,3.04,.29,1.8,1.06,2.53,2.87,2.85,.88,.16,1.8,.13,2.69,.25,.47,.06,.82,.4,.85,.9,.04,.67,.05,1.35,.03,2.03-.02,.64-.38,1.03-1.04,1.11-.11,.01-.22,.03-.34,.03-5.6,.34-10.07-1.46-9.99-9.2,.06-5.42,.01-10.84,.01-16.26Z"/><path class="cls-7" d="M1055.55,404.09c1.14-.71,1.94-1.36,2.86-1.74,3.96-1.67,7.88-1.85,11.59,.7,1.01,.69,1.02,1.2,.13,2.17-.15,.17-.31,.33-.48,.48-.58,.52-1.09,1.24-1.78,1.51-.84,.34-1.33-.65-2-1-4.47-2.37-9.62,.29-10.47,5.46-.16,.99-.13,2.03-.13,3.04-.01,4.74,0,9.49,0,14.23,0,.79,0,1.58-.05,2.37-.04,.65-.44,1.01-1.08,1.06-.56,.04-1.13,.04-1.69,.03-1.76-.03-1.94-.15-1.94-1.95-.02-9.04-.01-18.07,0-27.11,0-.34,.03-.68,.08-1.01,.07-.5,.37-.81,.88-.84,.67-.04,1.35-.07,2.03-.06,1.47,.03,1.47,.04,1.81,1.72,.04,.22,.12,.43,.26,.92Z"/><path class="cls-7" d="M1163.52,401.7c.47,.66-.04,1.59,.61,2.14,.56,.12,.89-.25,1.23-.51,2.68-2.06,5.76-2.41,8.98-2.02,.88,.11,1.77,.38,2.57,.74,2.91,1.31,3.01,1.96,.76,4.2-.39,.39-.82,.75-1.15,1.04-.9-.03-1.31-.64-1.88-.96-3.87-2.16-8.43-.61-10.12,3.46-.57,1.37-.75,2.81-.74,4.29,.03,4.95,.01,9.91,0,14.86,0,.79,0,1.58-.05,2.36-.04,.63-.42,1.01-1.07,1.06-.34,.02-.67,.03-1.01,.04-2.55,.03-2.63-.02-2.64-2.61-.01-8.56,0-17.12,0-25.67,0-.45,0-.9,.02-1.35,.02-.77,.33-1.32,1.18-1.31,1.11,0,2.25-.23,3.3,.24Z"/><path class="cls-6" d="M679.09,417.01c0,4.51,.02,9.03-.01,13.54,0,1.54-.3,1.79-1.74,1.86-2.9,.14-3.02,.05-3.03-2.91-.01-8.35,0-16.7,0-25.05,0-.56,0-1.13,.02-1.69,.03-.76,.34-1.29,1.2-1.3,.79,0,1.58-.02,2.37,0,.84,.03,1.17,.56,1.18,1.33,.01,4.18,.01,8.35,.02,12.53,0,.56,0,1.13,0,1.69h0Z"/><path class="cls-5" d="M679.27,390.41c0,.56,.04,1.12-.01,1.67-.06,.62-.43,1.02-1.08,1.03-1,.02-2.01,.03-3.01,0-.82-.03-1.17-.58-1.19-1.33-.08-4.44-.41-4.06,3.82-4.02,1.29,.01,1.44,.22,1.5,1.64,.01,.33,0,.67,0,1h-.04Z"/><path class="cls-4" d="M1385.28,218.92c.84-.67,1.86-.51,2.82-.58,.32-.02,.72,.03,.7,.42-.02,.26-.27,.58-.51,.74-.25,.16-.61,.15-.91,.22-.41-1.03-1.47-.35-2.1-.79Z"/></g></g></svg>