<?xml version="1.0" encoding="UTF-8"?><svg id="Layer_2" xmlns="http://www.w3.org/2000/svg" viewBox="0 0 309.22 294.64" fill="white"><g id="Layer_1-2"><g><path d="M76.54,30.75c.58-3.95,1.02-7.38,1.59-10.79,.83-5,2.81-9.56,5.79-13.65,5.31-7.27,14.41-7.27,19.78-.03,4.19,5.65,6.08,12.13,6.62,19.06,.13,1.62,.2,3.25,.31,5.1h99.82c.52-3.64,1.01-7.22,1.56-10.8,.74-4.84,2.52-9.31,5.27-13.34,5.71-8.38,15.24-8.4,20.97-.07,3.68,5.34,5.45,11.35,5.96,17.76,.16,1.97,.21,3.95,.34,6.57,1.93,0,3.7,0,5.46,0,15.82-.02,31.63-.05,47.45-.07,1.33,0,2.67-.07,3.99,.08,3.51,.38,5.9,2.32,6.74,5.73,.51,2.07,.65,4.27,.66,6.42,.14,79.9,.25,159.79,.36,239.69,0,1.17,.06,2.34-.04,3.49-.38,4.54-3.08,7.33-7.57,7.79-1.49,.15-2.99,.15-4.49,.15-94.74,.24-189.47,.4-284.21,.8-9.69,.04-12.72-3.59-12.71-12.68C.26,202.4,.1,122.84,0,43.28c-.01-10.39,2.07-12.43,12.62-12.45,19.48-.03,38.96-.05,58.44-.08,1.79,0,3.58,0,5.48,0Zm215.82,246.63V119.04H16.88c-.95,7.04-.42,155.15,.64,159.08,91.45-.24,183-.49,274.84-.73Zm-.35-174.95V47.12h-48.85c-2.05,3.28-3.52,6.32-5.62,8.83-7.21,8.61-15.77,8.26-22.36-.87-1.73-2.4-2.9-5.2-4.34-7.85H109.19c-1.09,2.19-1.89,4.21-3.05,6-1.25,1.94-2.66,3.85-4.32,5.44-6.24,6.03-12.97,5.96-18.67-.55-2.68-3.06-4.51-6.87-6.92-10.64-5.69-.77-56.27-.14-59.51,.82v54.13H292.01Z"/><path d="M158.2,187.64c-3.99,0-7.98,.08-11.97-.02-5.86-.14-9.01-3.15-9.09-8.91-.11-8.81-.12-17.62,0-26.44,.06-5,2.97-8.35,7.92-8.5,9.3-.28,18.63-.25,27.93-.04,4.24,.1,6.97,2.93,7.79,7.13,.19,.97,.24,1.98,.25,2.97,.03,7.98,.12,15.96,.03,23.94-.08,6.64-3.23,9.71-9.88,9.82-4.32,.07-8.65,.01-12.97,.01v.02Z"/><path d="M50.02,165.27c0-4.16-.07-8.31,.02-12.47,.12-6.11,3.09-9.1,9.28-9.18,8.48-.11,16.96-.12,25.44-.02,5.45,.07,8.67,2.71,8.86,8.05,.35,9.29,.36,18.61,.03,27.9-.18,5.06-3.37,7.85-8.48,7.95-8.81,.19-17.62,.2-26.43,.03-5.56-.11-8.5-3.24-8.65-8.8-.12-4.48-.03-8.97-.03-13.46h-.04Z"/><path d="M264.21,233.47c0,4.32,.09,8.65-.02,12.96-.15,5.45-3.21,8.83-8.63,8.96-8.97,.22-17.96,.22-26.93,0-4.88-.12-8.16-3.35-8.29-8.26-.25-9.13-.27-18.28-.04-27.42,.12-4.87,3.48-8.03,8.39-8.13,8.97-.19,17.96-.18,26.93-.05,5.14,.08,8.34,3.32,8.52,8.47,.16,4.48,.03,8.97,.03,13.46h.03Z"/><path d="M93.51,234.49c0,4.15,.08,8.31-.02,12.46-.13,5.69-2.96,8.65-8.59,8.73-8.8,.13-17.61,.15-26.41,.05-5.38-.06-8.42-2.76-8.62-8.22-.33-8.96-.37-17.94-.13-26.89,.15-5.46,3-8.36,8.43-8.55,8.96-.31,17.94-.35,26.9-.08,5.58,.17,8.26,3.37,8.38,9.06,.09,4.48,.02,8.97,.02,13.45h.04Z"/><path d="M158.69,253.71c-4.32,0-8.64,.09-12.96-.02-5.62-.15-8.57-3.03-8.66-8.7-.13-8.64-.13-17.28-.04-25.91,.06-5.91,2.8-8.86,8.83-9.16,5.64-.29,11.3-.11,16.94-.13,2.82-.01,5.65-.11,8.47,0,6.17,.23,9.22,3.01,9.53,9.16,.29,5.63,.11,11.29,.13,16.94,.01,2.99,.16,5.99-.04,8.97-.38,5.85-3.4,8.7-9.25,8.81-4.32,.08-8.64,.02-12.96,.02v.03Z"/><path d="M264.54,167.81c0,4.32,.11,8.64-.03,12.96-.18,5.86-3.14,8.79-9.07,8.87-8.47,.11-16.95,.1-25.42,.02-5.95-.06-9-2.96-9.1-8.81-.14-8.8-.16-17.61-.03-26.41,.08-5.33,2.99-8.48,8.3-8.63,8.97-.25,17.95-.26,26.92-.05,5.32,.13,8.15,3.24,8.34,8.59,.16,4.48,.03,8.97,.03,13.46h.06Z"/></g></g></svg>