<?xml version="1.0" encoding="UTF-8"?><svg id="Layer_2" xmlns="http://www.w3.org/2000/svg" viewBox="0 0 280.9 324.83" fill="white"><g id="Layer_1-2"><g><path d="M168.58,24.73c-5.88,5.18-8.49,11.83-9.41,19.32-1.36,11.22-2.67,22.44-4.16,33.64-.46,3.42-1.44,6.78-2.22,10.34,3.34,.37,4.55,2.94,5.1,6.13,.96,5.56,2.08,11.1,2.94,16.68,.3,1.95,.06,3.98,.03,5.98-.17,10.65-.34,21.31-.54,31.96-.12,6.15-1.37,7.26-7.49,6.86-6.31-.42-12.63-.76-18.93-1.3-2.07-.18-4.11-.84-6.39-1.33-.48,3.37-.94,6.81-1.47,10.24-.64,4.18-1.97,5.34-6.28,5.44-2.64,.06-5.29,.01-8.4,.01-.11,1.81-.28,3.4-.3,4.99-.42,46.28-.83,92.56-1.24,138.85-.01,1.66,.05,3.34-.11,4.99-.37,3.82-1.94,5.33-5.68,5.6-.99,.07-2,.03-3,.02-20.65-.26-41.3-.51-61.94-.79-5.68-.08-7.07-1.43-7.02-7.13,.41-46.78,.85-93.56,1.3-140.34,.02-1.99,.27-3.98,.46-6.59-2.77-.08-5.53-.16-8.29-.23-5.81-.16-7-1.03-8.42-6.44C11.66,140.87,6.23,120.14,.79,99.41c-.25-.96-.63-1.91-.74-2.89-.32-2.95,.94-4.82,3.82-5.52,1.27-.31,2.64-.35,3.96-.36,6.33-.06,12.66-.05,18.99-.1,1.62-.01,3.25-.17,5.31-.28v-19.64c-2.55-.05-5.33-.29-8.08-.11-6.69,.45-8.18-2.86-8.07-7.84,.41-18.64,.52-37.29,.79-55.93C16.85,1.19,18.19-.04,23.63,0c30.31,.22,60.62,.44,90.93,.68,9.52,.08,10.26,.87,10.15,10.29-.21,17.48-.58,34.96-.53,52.44,.02,6.96-2.87,8.46-8.38,8-1.64-.14-3.31-.02-5.64-.02-.13,6.59-.15,12.97-.1,19.98,4.15,0,7.93,0,11.71,0,2.66,0,5.34-.08,7.99,.08,4.1,.26,5.69,2,5.44,6.06-.18,2.98-.68,5.93-1.07,9.23l2.6,.28c.34-3.99,.76-7.76,.97-11.53,.21-3.92,1.91-6.6,5.52-7.63,.24-2.94,.46-5.71,.7-8.48,.65-7.44,1.06-14.92,2.05-22.32,.96-7.24,2.47-14.41,3.81-21.59,1-5.36,3.19-10.09,7.31-13.86,1.46-1.33,2.53-3.08,3.79-4.63,2.33-2.84,5.21-3.83,8.87-3.04,8.51,1.83,13.73,7.07,15.19,15.75,.64,3.77,1.03,7.58,1.46,11.38,1.75,15.24,2.06,30.49,1.3,45.83-.85,17.45-1.17,34.94-1.3,52.41-.05,6.45,1.2,12.91,1.61,19.38,.48,7.64,.52,15.31,1.04,22.94,.73,10.62,1.94,21.21,2.55,31.83,.64,11.13,.97,22.28,1.18,33.43,.23,12.48-.33,25,.4,37.45,.6,10.27,5.11,19.16,13.22,25.91,.51,.42,1.09,.76,1.66,1.09,.43,.24,.9,.4,1.22,.54,5.56-1.98,8.62-6.05,10.55-11.32,1.48-4.05,3.44-7.93,5.01-11.95,.65-1.66,1.11-3.5,1.19-5.27,.81-17.81,3.18-35.43,5.69-53.06,1.5-10.52,2.3-21.15,3.91-31.65,2.26-14.77,5.07-29.44,7.45-44.19,2.33-14.43,4.42-28.91,6.56-43.37,.29-1.95,.29-3.95,.42-5.72-.4-.46-.56-.82-.83-.94-7.49-3.43-9.31-9.48-8.88-17.24,.54-9.68,2.05-19.09,4.69-28.42,1.3-4.6,1.84-9.39,3.82-13.85,1.68-3.78,4.24-6.4,8.24-7.32,4.4-1.02,8.85-1.43,13.36-.36,5.5,1.3,9.01,5.15,9.43,10.79,.41,5.47,.74,10.95,.98,16.43,.51,11.95-2.34,23.45-5.11,34.91-1.25,5.17-5.5,7.69-10.92,9.16-.44,3.47-.76,7.07-1.36,10.63-1.64,9.84-3.5,19.63-5.06,29.48-2.21,13.95-4.29,27.92-6.29,41.9-1.41,9.87-2.45,19.78-3.9,29.64-1.73,11.84-3.83,23.62-5.54,35.46-.83,5.75-1.17,11.57-1.65,17.37-.37,4.48-.59,8.97-.97,13.44-.11,1.31-.32,2.68-.83,3.87-2.87,6.72-5.74,13.45-8.83,20.07-3.22,6.88-9.22,10.86-15.87,13.74-2.1,.91-4.9,.84-7.24,.42-4.73-.84-8.65-3.55-11.77-7.1-9.37-10.65-15.81-22.63-15.65-37.28,.16-14.98,.91-29.97,.61-44.94-.34-17.46-1.54-34.9-2.35-52.36-.18-3.82-.22-7.65-.41-11.48-.26-5.31-.59-10.61-.92-15.91-.35-5.64-1.1-11.28-1.03-16.91,.23-19.31,.72-38.61,1.19-57.91,.07-2.82,.82-5.63,.78-8.44-.08-5.64-.34-11.28-.77-16.91-.57-7.46-1.33-14.91-2.1-22.35-.17-1.64-.6-3.27-1.12-4.84-.83-2.46-2.41-3.95-5.16-3.37ZM101.35,168.56H43.09c.18,48.19-1.45,96.06-.97,143.86,7.59,1.04,54.16,.98,57.87-.08,.45-47.65,.9-95.39,1.36-143.77ZM26.31,9.53V60.57c29.39,.96,58.46,.59,88.06,.94V10.62c-29.28-.36-58.49-.72-88.06-1.09Zm-.05,148.59c30.42,.36,60.44,.72,90.55,1.08,2.74-19.63,5.66-38.56,8.11-58.15-38.29-.28-75.83-.56-113.98-.84,5.22,19.75,10.25,38.76,15.31,57.9Zm16.11-67.68c19.39,.55,38.4,.87,57.6,.73v-19.88c-19.3-.29-38.31-.57-57.6-.85v20Zm108.25,55.29v-28.96h-17.93c-1.25,9.3-3.09,18.6-3.69,27.7,7.47,.44,14.37,.84,21.62,1.26Zm116.69-70.47c-5.64,1.11-10.27,2.03-15.36,3.03,0,3.64-.01,7.26,0,10.88,.01,1.93,.51,3.81,2.48,4.46,2.74,.9,5.61,1.41,8.87,2.2,1.42-7.26,2.69-13.82,4.01-20.57Zm-6.09-23.97c-1.55,3.09-2.32,6.08-4.19,7.98-2.54,2.57-2.61,5.71-4.14,9.26,5.29-1.35,9.94-2.07,14.78,.63-.41-6.44-.78-12.32-1.17-18.57-2,.27-3.59,.48-5.27,.71Zm-115.78,55.38h4.67c-.56-3.13-1.07-5.97-1.61-9l-3.05,.37v8.63Z"/><path d="M69.33,107.33c8.65,0,17.3-.03,25.95,.01,6.45,.03,7.76,1.42,7.74,8.02-.02,6.49-.02,12.97-.14,19.46-.1,5.58-1.65,7.23-7.16,7.19-17.97-.14-35.93-.35-53.89-.62-4.39-.07-5.87-1.67-5.89-6.17-.04-7.32-.02-14.64,.09-21.95,.07-4.76,1.56-6.21,6.35-6.25,8.98-.06,17.97-.02,26.95-.02v.33Zm-23.28,24.03c15.92,.9,31.28,.8,46.62,.67v-14.74c-15.71,.06-31.06-1.11-46.62-.47v14.54Z"/></g></g></svg>