<?xml version="1.0" encoding="UTF-8"?><svg id="Layer_2" xmlns="http://www.w3.org/2000/svg" viewBox="0 0 346.25 286.18" fill="white"><g id="Layer_1-2"><g><path d="M75.03,75.96c0-11.96,.01-23.92,0-35.88,0-2.6,1.13-4.3,3.46-5.49C100.38,23.37,122.27,12.11,144.14,.83c2.09-1.08,4.01-1.11,6.09-.06,6.61,3.33,13.21,6.68,19.88,9.87,5.98,2.86,11.84,5.96,17.81,8.82,6.19,2.97,12.32,6.06,18.48,9.09,4.83,2.38,9.65,4.78,14.5,7.1,2.53,1.21,3.85,3.1,3.69,5.92-.65,11.4-1.37,22.8-1.98,34.21-.62,11.59-1.15,23.18-1.7,34.77-.11,2.35-1.28,3.97-3.3,5.12-21.61,12.35-43.21,24.71-64.79,37.09-2.05,1.17-3.92,1.16-6.03,.04-8.19-4.35-16.43-8.61-24.67-12.86-14.48-7.47-28.96-14.93-43.46-22.35-2.4-1.23-3.53-2.98-3.51-5.74,.07-11.96,.03-23.92,.03-35.89h-.14Zm80.07,62.66c1.28-.55,2.26-.86,3.13-1.36,16.65-9.49,33.27-19.03,49.95-28.48,1.62-.91,2.28-1.94,2.26-3.75-.02-2.12,.22-4.25,.33-6.38,.78-14.78,1.55-29.57,2.33-44.35,.07-1.37,.19-2.73,.31-4.48-1.32,.64-2.19,1.05-3.05,1.49-16.92,8.6-33.8,17.28-50.79,25.74-3.26,1.63-4.65,3.14-4.47,7.27,.49,10.92,.03,21.88-.05,32.82-.01,1.58,.04,3.16,.05,4.74,0,5.42,0,10.84,0,16.73ZM85.78,48.55c0,1.34,0,2.13,0,2.93,.02,18.39,.07,36.77,0,55.16,0,1.99,.65,2.95,2.4,3.85,17.86,9.14,35.67,18.38,53.49,27.59,.77,.4,1.57,.74,2.52,1.18,.09-.54,.19-.86,.19-1.18,0-19.01,0-38.02-.11-57.03,0-.86-.89-2.07-1.7-2.51-6.17-3.39-12.43-6.63-18.67-9.9-.51-.27-1.09-.42-1.97-.75,0,1.17,0,2.04,0,2.9,0,4.73,.2,9.47-.08,14.19-.1,1.68-.94,3.85-2.19,4.76-1.24,.9-3.56,.99-5.18,.56-2.28-.61-3.11-2.76-3.12-5.09-.03-7.05,0-14.1-.13-21.15-.02-.9-.49-2.23-1.17-2.6-7.89-4.3-15.86-8.45-24.28-12.89Zm121.45-7.61c-1.04-.55-1.81-.98-2.59-1.36-7.75-3.83-15.55-7.56-23.21-11.56-2.29-1.2-4.02-1.14-6.07,.27-1.65,1.13-3.52,1.93-5.29,2.89-14.58,7.89-29.17,15.78-43.75,23.67-.83,.45-1.63,.95-2.72,1.58,8.56,4.51,16.73,8.87,24.98,13.09,.74,.38,2.06,.16,2.88-.25,7.82-3.89,15.58-7.88,23.36-11.84,10.7-5.45,21.4-10.89,32.41-16.49Zm-40.65-20.13c-6-2.97-11.67-5.69-17.25-8.58-1.54-.8-2.69-.69-4.17,.08-16.85,8.74-33.73,17.41-50.6,26.1-.76,.39-1.5,.82-2.54,1.39,6.6,3.48,12.81,6.78,19.07,10,.58,.3,1.57,.33,2.13,.03,17.03-9.16,34.03-18.37,51.03-27.59,.67-.36,1.31-.8,2.34-1.43Z"/><path d="M72.15,120.19c1.11,.37,2.16,.59,3.09,1.05,23.51,11.57,47.01,23.17,70.51,34.75,2.81,1.38,4,3.3,3.83,6.1-.69,11.66-1.39,23.33-2.02,35-.61,11.31-1.12,22.63-1.68,33.95-.12,2.35-1.33,3.94-3.35,5.09-20.46,11.64-41,23.14-61.27,35.1-4.67,2.76-8.08,2.86-12.87,.3-21.39-11.41-43.02-22.37-64.59-33.45-2.48-1.27-3.69-3.02-3.69-5.9C.13,208.27,.07,184.35,0,160.44c0-2.64,1.23-4.31,3.5-5.48,21.81-11.18,43.61-22.39,65.43-33.57,1-.51,2.12-.8,3.22-1.21Zm66.4,50.03c-1.03,.45-1.52,.64-1.99,.87-18.28,9.29-36.54,18.61-54.85,27.85-1.48,.75-1.74,1.68-1.73,3.14,.05,18.3,.05,36.59,.06,54.89,0,.68,0,1.36,0,2.39,1.19-.62,2.05-1.02,2.87-1.5,5.77-3.36,11.5-6.8,17.31-10.11,11-6.26,22.03-12.47,33.08-18.64,1.39-.77,2.05-1.64,2.11-3.29,.2-5.53,.63-11.05,.86-16.57,.21-5.24,.11-10.49,.44-15.72,.47-7.61,1.2-15.2,1.86-23.31Zm-69.44,89.4c.11-.43,.23-.67,.23-.91,0-19.1,0-38.2-.1-57.3,0-.86-.94-2.05-1.76-2.5-5.62-3.09-11.33-6.03-17.02-9.02-1.07-.56-2.16-1.07-3.54-1.76,0,6.06,.03,11.67-.01,17.28-.02,3.09-1.38,5.02-3.87,5.69-3.56,.96-6.62-1.46-6.68-5.53-.11-6.96-.12-13.92-.07-20.89,.01-1.61-.43-2.56-1.95-3.33-7.22-3.69-14.38-7.53-21.56-11.3-.57-.3-1.2-.47-1.87-.74-.08,.54-.15,.81-.15,1.07,.01,19.19,.05,38.38,0,57.57,0,1.62,.84,2.14,1.99,2.73,18.14,9.35,36.27,18.71,54.4,28.06,.61,.31,1.25,.56,1.95,.87Zm62.86-98.14c-.45-.4-.62-.62-.84-.73-8.79-4.35-17.57-8.73-26.43-12.95-.87-.41-2.41-.06-3.36,.45-16.67,8.93-33.29,17.94-49.93,26.93-.83,.45-1.63,.96-2.46,1.45,.2,.32,.25,.52,.37,.58,8.04,4.26,16.07,8.53,24.15,12.71,.66,.34,1.78,.35,2.44,.02,18.62-9.41,37.21-18.89,56.05-28.48Zm-115.07-1.3c6.88,3.62,13.23,6.98,19.62,10.28,.41,.21,1.17,.07,1.62-.18,16.86-9.09,33.71-18.21,50.55-27.34,.88-.48,1.74-1.01,2.91-1.7-6.13-3.02-11.83-5.76-17.46-8.65-1.45-.74-2.53-.65-3.93,.09-8.44,4.43-16.94,8.75-25.42,13.11-9.11,4.69-18.21,9.38-27.91,14.38Z"/><path d="M293.31,170.85c-4.53,2.3-8.57,4.35-12.61,6.4-16.04,8.18-32.09,16.37-48.13,24.56-2.07,1.06-4.07,1-6.11-.11-4.55-2.46-9.12-4.88-13.69-7.29-3.44-1.82-6.9-3.6-10.86-5.66,0,2.56,0,4.73,0,6.91,0,3.3,.05,6.61,.02,9.91-.03,3.95-2.07,6.4-5.27,6.44-3.2,.04-5.3-2.43-5.32-6.35-.04-6.77,.01-13.54-.11-20.31-.02-.98-.5-2.45-1.23-2.84-7.89-4.31-15.87-8.46-24.13-12.81-.07,1.02-.17,1.76-.17,2.5,0,18.57,.05,37.14,0,55.7,0,1.76,.5,2.69,2.09,3.48,7.49,3.76,14.92,7.64,22.36,11.5,2.37,1.23,3.67,3.14,3.17,5.88-.45,2.47-2.04,4.03-4.53,4.23-1.25,.1-2.68-.28-3.82-.85-8.91-4.5-17.75-9.16-26.67-13.65-4.05-2.04-3.29-5.76-3.4-9.09-.18-5.69-.06-11.39-.04-17.09,0-1.06,.18-2.11,.18-3.17-.07-11.22-.2-22.44-.24-33.66-.02-4.45,.19-8.9,.18-13.36,0-.97-.67-1.93-.68-2.89,0-.81,.29-2.08,.85-2.36,11.97-6.16,23.99-12.21,36.01-18.28,10.26-5.18,20.51-10.38,30.79-15.52,1.72-.86,3.57-1.49,5.38-2.16,.41-.15,1.01-.17,1.39,.02,10.84,5.4,21.65,10.87,32.5,16.27,12.1,6.02,24.24,11.99,36.36,17.97,.95,.47,1.94,.88,2.94,1.26,2.41,.91,4.09,3.16,3.98,5.72-.2,4.55-.47,9.09-.85,13.62-.3,3.54-2.59,5.55-5.76,5.3-2.96-.23-4.84-2.58-4.77-5.99,.03-1.24,.11-2.48,.19-4.25Zm-6.43-8.79c-.27-.25-.44-.49-.67-.61-8.87-4.39-17.73-8.8-26.66-13.07-.79-.38-2.21-.03-3.09,.44-16.74,8.98-33.45,18.02-50.16,27.05-.84,.46-1.66,.97-2.77,1.61,8.19,4.32,16.08,8.43,23.91,12.66,1.57,.85,2.78,.89,4.4,.06,17.61-9.03,35.27-17.98,52.92-26.96,.71-.36,1.38-.78,2.12-1.2Zm-40.37-20.19c-5.94-2.94-11.48-5.6-16.93-8.43-1.67-.86-2.97-.88-4.67,0-16.76,8.72-33.57,17.35-50.36,26-.77,.4-1.52,.84-2.6,1.43,6.62,3.48,12.9,6.81,19.22,10.06,.51,.26,1.4,.29,1.9,.02,17.34-9.34,34.65-18.73,51.96-28.12,.37-.2,.71-.47,1.47-.97Z"/><path d="M283.84,286.18c-16.4-.04-28.66-5.2-40.09-12.77-10.51-6.95-19.39-15.72-27.84-24.97-1.81-1.98-1.96-4.17-.29-6.04,11.46-12.86,23.94-24.48,39.76-31.92,21.15-9.94,41.53-8.01,61.19,4.16,10.99,6.8,19.97,15.83,28.35,25.52,1.6,1.85,1.81,3.9,.29,5.86-9.24,11.91-19.34,22.94-32.38,30.86-9.64,5.85-19.99,9.38-28.99,9.3Zm-58.84-41.07c1.67,1.79,3.11,3.41,4.63,4.95,8.57,8.69,17.85,16.45,28.96,21.75,9.9,4.72,20.25,6.95,31.18,4.77,20.36-4.06,33.67-17.93,46.14-32.94-7.44-10.53-23.5-22.68-35.88-27.39-8.02-3.05-16.29-4.08-24.72-2.73-21.17,3.4-36.08,16.8-50.31,31.58Z"/><path d="M302.04,245.54c-.14,11.05-8.52,20.62-20.06,21.18-15.36,.76-23.61-11.8-23.05-22.25,.66-12.36,9.57-20.8,21.82-20.83,12-.03,21.49,9.95,21.28,21.9Z"/></g></g></svg>