<?xml version="1.0" encoding="UTF-8"?><svg id="Layer_2" xmlns="http://www.w3.org/2000/svg" viewBox="0 0 376.35 322.59" fill="white"><g id="Layer_1-2"><g><path d="M76.64,30.9c.49-3.45,.89-6.39,1.33-9.32,.8-5.34,2.64-10.29,5.72-14.75,5.43-7.85,14.87-7.97,20.4-.27,3.48,4.84,5.4,10.26,6.05,16.16,.27,2.45,.61,4.89,.95,7.58h99.41c.47-3.07,.96-5.98,1.35-8.9,.76-5.71,2.65-10.98,6.01-15.67,5.41-7.57,14.57-7.63,20.1-.14,3.43,4.65,5.35,9.92,6.07,15.64,.35,2.8,.65,5.6,1.04,9.09,1.81,0,3.58,0,5.35,0,15.65-.02,31.31-.04,46.96-.05,1.33,0,2.68-.08,3.99,.1,4.09,.56,6.95,3.46,7.46,7.57,.18,1.48,.1,2.99,.1,4.49,.06,48.12,.11,96.23,.16,144.35,0,1.5,.07,3.01-.07,4.49-.4,4.28-3.83,7.51-7.89,7.56-3.86,.04-7.46-2.86-8.15-6.79-.28-1.62-.18-3.32-.18-4.98-.03-20.81-.05-41.62-.07-62.43,0-1.8,0-3.59,0-5.58H17.04v158.95c2.45,0,4.4,0,6.36,0,52.13-.06,104.26-.12,156.38-.18,1.67,0,3.34-.08,4.99,.07,4.43,.39,7.4,3.55,7.47,7.83,.08,4.31-2.74,7.67-7.05,8.29-1.31,.19-2.66,.11-3.99,.11-56.46,.09-112.92,.18-169.37,.26-1.33,0-2.67,.03-3.99-.12-3.86-.44-6.4-2.78-6.99-6.65-.35-2.29-.4-4.64-.41-6.97C.29,201.2,.16,121.78,.02,42.36c0-1.33-.09-2.68,.08-3.99,.52-4.17,3.37-6.9,7.58-7.28,1.49-.13,3-.08,4.49-.08,19.65-.04,39.3-.07,58.96-.11,1.79,0,3.59,0,5.51,0Zm133.97,16.49H110.09c-3.08,4.28-5.26,8.3-8.36,11.4-6,6.01-12.62,5.78-18.24-.54-2.7-3.04-4.54-6.84-7.05-10.71H16.91c-1.02,6.46-.66,51.87,.42,55.35,91.64-.27,183.3-.55,274.89-.82,1.05-9.07,.59-51.71-.49-54.96h-47.86c-3.13,4.19-5.32,7.98-8.33,10.96-5.86,5.81-12.36,5.63-17.88-.42-2.64-2.89-4.5-6.48-7.05-10.26Z"/><path d="M298.24,222.96c17.54,.44,32.57,6.08,46.32,15.54,11.34,7.8,20.9,17.5,29.92,27.77,2.35,2.67,2.5,5.44,.37,8.14-10.15,12.83-21.03,24.93-34.7,34.2-12.09,8.2-25.22,13.43-39.95,13.94-9.59,.34-18.85-1.51-27.8-4.94-13.39-5.14-25.04-13.1-35.58-22.64-6.16-5.57-11.91-11.61-17.69-17.6-3.05-3.16-3.05-5.63-.18-8.75,11.43-12.38,23.48-24.04,38.06-32.79,11.43-6.86,23.66-11.29,36.96-12.6,1.65-.16,3.32-.22,4.26-.27Zm65.73,47.39c-5.3-5.12-10.12-10.2-15.39-14.76-7.01-6.07-14.31-11.67-23.01-15.47-17.47-7.63-34.74-7.95-52.21-.35-13.01,5.66-24.03,14.16-34.22,23.84-3.09,2.94-6.02,6.05-9.23,9.28,13.81,14.76,28.25,27.67,46.94,34.75,16.81,6.37,33.28,5.11,49.17-3.28,15.19-8.02,26.83-20.01,37.95-34.01Z"/><path d="M159.41,209.93c4.32,0,8.65-.1,12.97,.02,5.22,.14,8.46,3.16,8.57,8.37,.19,8.97,.18,17.95,.04,26.93-.08,4.77-2.84,7.58-7.61,8.37-.82,.14-1.65,.2-2.48,.21-7.98,.03-15.97,.13-23.94,0-6.72-.11-9.81-3.2-9.9-9.82-.11-8.14-.11-16.29-.03-24.44,.06-6.62,3.14-9.54,9.91-9.62,4.16-.05,8.31,0,12.47,0v-.02Z"/><path d="M72.26,211.96c3.99,0,7.98-.04,11.97,0,5.94,.07,9.32,2.78,9.52,8.5,.31,8.96,.31,17.95,.07,26.92-.14,5.04-3.19,8.18-8.19,8.35-9.13,.31-18.29,.32-27.42,.08-5.13-.13-8.15-3.59-8.21-8.8-.11-8.81-.13-17.62-.02-26.43,.07-5.47,3.21-8.46,8.82-8.6,4.49-.11,8.98-.02,13.47-.02v-.02Z"/><path d="M71.88,187.37c-4.32,0-8.65,.09-12.97-.02-5.57-.15-8.68-3.07-8.8-8.66-.19-8.8-.19-17.62-.04-26.42,.09-5.28,3.11-8.32,8.44-8.48,8.64-.26,17.29-.39,25.93-.24,6.7,.12,9.52,3.26,9.59,10.07,.07,7.98,.07,15.95,.01,23.93-.05,6.8-2.92,9.67-9.7,9.79-4.15,.07-8.31,.01-12.47,.01v.03Z"/><path d="M220.88,167.63c0-4.15-.07-8.31,.02-12.46,.12-6.21,3.01-9.17,9.19-9.25,8.48-.11,16.95-.13,25.43-.05,6.14,.05,9.21,3.01,9.33,9.18,.16,8.47,.15,16.95,.03,25.42-.08,5.83-3.08,8.83-8.99,9-7.97,.22-15.95,.21-23.93,.28-.66,0-1.33-.06-1.99-.12-6.3-.57-8.93-3.28-9.05-9.53-.08-4.15-.02-8.31-.02-12.46h-.02Z"/><path d="M181.09,166.12c0,4.15,.08,8.31-.02,12.46-.13,5.64-3,8.68-8.59,8.78-8.81,.16-17.62,.17-26.42,.06-5.6-.07-8.7-2.99-8.85-8.61-.24-8.8-.26-17.61-.05-26.41,.13-5.56,3.29-8.46,8.92-8.55,8.64-.14,17.28-.15,25.92-.04,6.15,.08,8.95,3.06,9.05,9.36,.07,4.32,.01,8.64,.01,12.96h.02Z"/><path d="M270.7,272.79c0-14.45,11.45-25.77,25.84-26.07,14.76-.31,26.58,12.3,26.48,26-.1,14.62-11.58,26.31-26.16,26.36-14.5,.05-26.18-11.68-26.17-26.29Z"/></g></g></svg>