<?xml version="1.0" encoding="UTF-8"?><svg id="Layer_2" xmlns="http://www.w3.org/2000/svg" viewBox="0 0 195.48 306.15" fill="white"><g id="Layer_1-2"><g><path d="M80.42,15.86c-4.32,0-7.79,0-11.25,0-7.33,0-14.65-.01-21.98-.03-1.33,0-2.68,.07-3.99-.12-3.77-.55-6.64-3.81-6.76-7.55-.12-3.45,2.4-6.84,5.95-7.65C44.15,.11,46.02,0,47.84,0c31.97,.09,63.94,.25,95.91,.28,3.98,0,6.93,1.2,9.44,4.43,13.05,16.84,26.26,33.56,39.4,50.32,.62,.78,1.26,1.56,1.75,2.42,2.05,3.59,1.25,7.92-1.87,10.32-3.13,2.41-7,2.31-10.04-.43-1.22-1.1-2.21-2.48-3.24-3.79-11.72-14.92-23.43-29.85-35.15-44.77-.71-.91-1.49-1.76-2.25-2.66h-41.13c.04,4.25-.58,8.11,.17,12.33,.85,4.73-.41,9.86-.82,14.8-.13,1.59-.49,3.16-.83,5.27,3.81,.09,7.1,.15,10.38,.25,3.66,.12,7.33,.16,10.98,.47,5.16,.44,7.79,3.24,7.76,8.5-.08,12.79-.33,25.58-.51,38.93,.82,.58,2.15,1.54,3.5,2.47,13.17,9.04,22.35,21.24,28.24,35.97,2.45,6.14-1.19,11.7-7.26,11.51-2.53-.08-4.48-1.22-5.93-3.18-.78-1.06-1.37-2.28-1.89-3.5-9.26-21.65-25.96-33.65-48.66-38.64-32.74-7.2-65.35,16.04-73.91,41.86-2.54,7.66-3.63,15.49-3.74,23.53-.25,17.48-.62,34.95-.93,52.42-.37,20.8-.74,41.61-1.11,62.41-.03,1.79,0,3.57,0,5.24,4.22,1.03,126.71,3.65,132.85,2.9,.1-1.2,.28-2.48,.3-3.76,.38-20.8,.74-41.61,1.12-62.41,.31-17.14,.62-34.28,.96-51.43,.03-1.65,.14-3.34,.56-4.93,1.05-3.99,4.1-6.09,8.14-5.84,3.8,.24,6.73,3.04,7.21,7.03,.14,1.15,.06,2.33,.04,3.49-.11,8.32-.21,16.65-.36,24.97-.58,32.29-1.18,64.57-1.74,96.86-.18,10.41-2.49,12.67-12.74,12.46-17.48-.35-34.96-.63-52.44-.97-29.96-.57-59.93-1.16-89.89-1.74-.83-.02-1.67,.03-2.5-.06-4.55-.49-7.26-3.26-7.54-7.78-.1-1.66-.02-3.33,0-4.99,.48-30.79,.94-61.58,1.44-92.38,.21-12.65-.07-25.34,.87-37.93,1.87-24.91,12.7-45.19,33.22-59.88,4.31-3.08,8.93-5.74,13.54-8.69-1.87-11.76-.08-23.68-.02-35.59,.03-5.27,3.13-8.12,8.64-8.21,4.99-.08,9.98,.28,14.97,.42,1.64,.05,3.28,0,5.08,0-.28-3.27-.86-6.2-.7-9.1,.21-3.95,.95-7.87,1.52-11.79,.52-3.59,1.11-7.18,1.8-11.59Zm-15.77,48.07v22.43c16.07-3.77,31.7-2.29,47.28,2.89v-24.38c-15.76-.31-31.18-.62-47.28-.94Z"/><path d="M83.61,186.4c9.87,.29,19.18,.45,28.49,.88,6.19,.29,9.63,6.03,6.97,11.28-1.11,2.19-2.9,3.62-5.36,4.05-.81,.14-1.66,.19-2.48,.18-17.8-.3-35.6-.61-53.39-.93-.66-.01-1.33-.03-1.99-.12-4.45-.6-7.26-3.87-7.04-8.16,.21-4.06,3.13-7.14,7.42-7.25,5.82-.15,11.64,.04,17.47,.07,3.49,.02,6.99,0,9.93,0Z"/><path d="M84.8,169.46c-8.3-.25-16.6-.42-24.89-.78-5.15-.22-8.12-3.5-7.86-8.29,.2-3.79,2.6-6.49,6.41-7.09,1.14-.18,2.32-.17,3.48-.16,14.45,.17,28.89,.35,43.34,.56,1.65,.02,3.33,.08,4.95,.35,4.92,.82,7.51,3.98,7.14,8.52-.34,4.12-3.49,6.97-8.15,7.03-8.14,.1-16.27,.03-24.41,.03v-.17Z"/><path d="M85.76,236.57c-8.15-.27-16.3-.66-24.45-.76-5.29-.07-9.51-5.69-7.09-10.96,1.2-2.62,3.19-4.26,6.09-4.53,1.82-.17,3.66-.1,5.49-.07,13.98,.23,27.95,.48,41.93,.73,.83,.01,1.67,.05,2.49,.16,4.62,.59,7.33,3.6,7.22,7.98-.11,4.26-3.14,7.38-7.7,7.48-5.49,.12-10.98-.05-16.48-.09-2.5-.02-4.99,0-7.49,0v.07Z"/><path d="M191.76,104.41c-.09,1.65-.18,3.31-.28,4.96-.06,.99-.07,1.99-.23,2.97-.7,4.28-3.56,7.19-7,7.18-3.4,0-6.82-2.96-6.99-7.15-.22-5.26,.16-10.58,.78-15.82,.3-2.53,1.41-5.13,2.76-7.32,2.43-3.95,6.21-3.76,8.62,.22,2.82,4.64,2.7,9.79,2.34,14.95Z"/></g></g></svg>